{
  "version": "2.0",
  "zoom": 1.0,
  "gridOffset": [
    43.866664886474609,
    -0.34999999403953552
  ],
  "modules": [
    {
      "id": 25,
      "plugin": "Fundamental",
      "model": "VCMixer",
      "version": "2.0",
      "params": [
        {
          "value": 1.0,
          "id": 0
        },
        {
          "value": 0.72422856092453003,
          "id": 1
        },
        {
          "value": 0.73978477716445923,
          "id": 2
        },
        {
          "value": 1.4142135381698608,
          "id": 3
        },
        {
          "value": 1.0,
          "id": 4
        }
      ],
      "leftModuleId": 872794373663690,
      "rightModuleId": 8789248072766864,
      "pos": [
        78,
        1
      ]
    },
    {
      "id": 6608587899376160,
      "plugin": "AudibleInstruments",
      "model": "Marbles",
      "version": "2.0",
      "params": [
        {
          "value": 0.0,
          "id": 0
        },
        {
          "value": 0.0,
          "id": 1
        },
        {
          "value": 0.5,
          "id": 2
        },
        {
          "value": 0.0,
          "id": 3
        },
        {
          "value": 0.80361443758010864,
          "id": 4
        },
        {
          "value": 0.0,
          "id": 5
        },
        {
          "value": 0.0,
          "id": 6
        },
        {
          "value": 1.0,
          "id": 7
        },
        {
          "value": 0.5,
          "id": 8
        },
        {
          "value": 0.5,
          "id": 9
        },
        {
          "value": 0.0,
          "id": 10
        },
        {
          "value": 0.0,
          "id": 11
        },
        {
          "value": 0.0,
          "id": 12
        },
        {
          "value": 0.11084342002868652,
          "id": 13
        },
        {
          "value": 0.0,
          "id": 14
        }
      ],
      "rightModuleId": 2558352717272193,
      "data": {
        "t_deja_vu": false,
        "x_deja_vu": false,
        "t_mode": 0,
        "x_mode": 0,
        "t_range": 1,
        "x_range": 0,
        "external": false,
        "x_scale": 0,
        "y_divider_index": 8,
        "x_clock_source_internal": 0
      },
      "pos": [
        0,
        1
      ]
    },
    {
      "id": 872794373663690,
      "plugin": "AudibleInstruments",
      "model": "Rings",
      "version": "2.0",
      "params": [
        {
          "value": 0.0,
          "id": 0
        },
        {
          "value": 0.0,
          "id": 1
        },
        {
          "value": 30.0,
          "id": 2
        },
        {
          "value": 0.5,
          "id": 3
        },
        {
          "value": 0.5,
          "id": 4
        },
        {
          "value": 0.5,
          "id": 5
        },
        {
          "value": 0.5,
          "id": 6
        },
        {
          "value": 0.31999999284744263,
          "id": 7
        },
        {
          "value": 0.0,
          "id": 8
        },
        {
          "value": 0.17866668105125427,
          "id": 9
        },
        {
          "value": 0.0,
          "id": 10
        },
        {
          "value": 0.0,
          "id": 11
        }
      ],
      "leftModuleId": 5041879696794767,
      "rightModuleId": 25,
      "data": {
        "polyphony": 2,
        "model": 0,
        "easterEgg": false
      },
      "pos": [
        64,
        1
      ]
    },
    {
      "id": 8789248072766864,
      "plugin": "AudibleInstruments",
      "model": "Clouds",
      "version": "2.0",
      "params": [
        {
          "value": 0.0,
          "id": 0
        },
        {
          "value": 0.0,
          "id": 1
        },
        {
          "value": 0.0,
          "id": 2
        },
        {
          "value": 0.5,
          "id": 3
        },
        {
          "value": 0.5,
          "id": 4
        },
        {
          "value": 0.0,
          "id": 5
        },
        {
          "value": 0.5,
          "id": 6
        },
        {
          "value": 0.44698795676231384,
          "id": 7
        },
        {
          "value": 0.42048192024230957,
          "id": 8
        },
        {
          "value": 0.33012053370475769,
          "id": 9
        },
        {
          "value": 1.0,
          "id": 10
        },
        {
          "value": 0.32530114054679871,
          "id": 11
        },
        {
          "value": 1.0,
          "id": 12
        }
      ],
      "leftModuleId": 25,
      "rightModuleId": 6673494357306977,
      "data": {
        "playback": 1,
        "quality": 0,
        "blendMode": 2
      },
      "pos": [
        88,
        1
      ]
    },
    {
      "id": 2558352717272193,
      "plugin": "AudibleInstruments",
      "model": "Branches",
      "version": "2.0",
      "params": [
        {
          "value": 0.095180794596672058,
          "id": 0
        },
        {
          "value": 0.93493986129760742,
          "id": 1
        },
        {
          "value": 0.0,
          "id": 2
        },
        {
          "value": 0.0,
          "id": 3
        }
      ],
      "leftModuleId": 6608587899376160,
      "rightModuleId": 6810943209341331,
      "data": {
        "modes": [
          false,
          false
        ]
      },
      "pos": [
        18,
        1
      ]
    },
    {
      "id": 5041879696794767,
      "plugin": "AudibleInstruments",
      "model": "Ripples",
      "version": "2.0",
      "params": [
        {
          "value": 0.4337349534034729,
          "id": 0
        },
        {
          "value": 8.0320806503295898,
          "id": 1
        },
        {
          "value": -0.56867474317550659,
          "id": 2
        }
      ],
      "leftModuleId": 3779973950171530,
      "rightModuleId": 872794373663690,
      "pos": [
        56,
        1
      ]
    },
    {
      "id": 3779973950171530,
      "plugin": "AudibleInstruments",
      "model": "Blinds",
      "version": "2.0",
      "params": [
        {
          "value": 0.0,
          "id": 0
        },
        {
          "value": 0.0,
          "id": 1
        },
        {
          "value": 0.0,
          "id": 2
        },
        {
          "value": 0.0,
          "id": 3
        },
        {
          "value": 1.0,
          "id": 4
        },
        {
          "value": 0.0,
          "id": 5
        },
        {
          "value": 0.0,
          "id": 6
        },
        {
          "value": 0.0,
          "id": 7
        }
      ],
      "leftModuleId": 8856429113755519,
      "rightModuleId": 5041879696794767,
      "pos": [
        44,
        1
      ]
    },
    {
      "id": 6810943209341331,
      "plugin": "Fundamental",
      "model": "VCO",
      "version": "2.0",
      "params": [
        {
          "value": 1.0,
          "id": 0
        },
        {
          "value": 1.0,
          "id": 1
        },
        {
          "value": 0.0,
          "id": 2
        },
        {
          "value": 0.0,
          "id": 3
        },
        {
          "value": 0.20000000298023224,
          "id": 4
        },
        {
          "value": 0.5,
          "id": 5
        },
        {
          "value": 0.0,
          "id": 6
        }
      ],
      "leftModuleId": 2558352717272193,
      "rightModuleId": 8856429113755519,
      "pos": [
        24,
        1
      ]
    },
    {
      "id": 8856429113755519,
      "plugin": "Fundamental",
      "model": "VCO",
      "version": "2.0",
      "params": [
        {
          "value": 1.0,
          "id": 0
        },
        {
          "value": 1.0,
          "id": 1
        },
        {
          "value": 0.0,
          "id": 2
        },
        {
          "value": 0.0,
          "id": 3
        },
        {
          "value": 0.23253011703491211,
          "id": 4
        },
        {
          "value": 0.5,
          "id": 5
        },
        {
          "value": 0.0,
          "id": 6
        }
      ],
      "leftModuleId": 6810943209341331,
      "rightModuleId": 3779973950171530,
      "pos": [
        34,
        1
      ]
    },
    {
      "id": 3884832096929117,
      "plugin": "Fundamental",
      "model": "SEQ3",
      "version": "2.0",
      "params": [
        {
          "value": 6.0,
          "id": 0
        },
        {
          "value": 0.0,
          "id": 1
        },
        {
          "value": 0.0,
          "id": 2
        },
        {
          "value": 8.0,
          "id": 3
        },
        {
          "value": 1.3561021089553833,
          "id": 4
        },
        {
          "value": 4.7856369018554688,
          "id": 5
        },
        {
          "value": 5.2581925392150879,
          "id": 6
        },
        {
          "value": 6.8574514389038086,
          "id": 7
        },
        {
          "value": 3.1779932975769043,
          "id": 8
        },
        {
          "value": 3.7065207958221436,
          "id": 9
        },
        {
          "value": 1.2189661264419556,
          "id": 10
        },
        {
          "value": 5.7097196578979492,
          "id": 11
        },
        {
          "value": 8.0905332565307617,
          "id": 12
        },
        {
          "value": 2.0494632720947266,
          "id": 13
        },
        {
          "value": 1.2389243841171265,
          "id": 14
        },
        {
          "value": 9.9306211471557617,
          "id": 15
        },
        {
          "value": 5.3931999206542969,
          "id": 16
        },
        {
          "value": 4.2804112434387207,
          "id": 17
        },
        {
          "value": 2.4773285388946533,
          "id": 18
        },
        {
          "value": 1.3445616960525513,
          "id": 19
        },
        {
          "value": 4.8509225845336914,
          "id": 20
        },
        {
          "value": 0.99540865421295166,
          "id": 21
        },
        {
          "value": 9.5277500152587891,
          "id": 22
        },
        {
          "value": 9.0321998596191406,
          "id": 23
        },
        {
          "value": 3.4826292991638184,
          "id": 24
        },
        {
          "value": 1.4936279058456421,
          "id": 25
        },
        {
          "value": 9.333308219909668,
          "id": 26
        },
        {
          "value": 2.0953857898712158,
          "id": 27
        },
        {
          "value": 0.0,
          "id": 28
        },
        {
          "value": 0.0,
          "id": 29
        },
        {
          "value": 0.0,
          "id": 30
        },
        {
          "value": 0.0,
          "id": 31
        },
        {
          "value": 0.0,
          "id": 32
        },
        {
          "value": 0.0,
          "id": 33
        },
        {
          "value": 0.0,
          "id": 34
        },
        {
          "value": 0.0,
          "id": 35
        }
      ],
      "rightModuleId": 5038784310106314,
      "data": {
        "running": true,
        "gates": [
          1,
          1,
          1,
          1,
          1,
          1,
          1,
          1
        ]
      },
      "pos": [
        0,
        2
      ]
    },
    {
      "id": 5038784310106314,
      "plugin": "AudibleInstruments",
      "model": "Stages",
      "version": "2.0",
      "params": [
        {
          "value": 0.0,
          "id": 0
        },
        {
          "value": 0.0,
          "id": 1
        },
        {
          "value": 1.0,
          "id": 2
        },
        {
          "value": 0.0,
          "id": 3
        },
        {
          "value": 0.40266650915145874,
          "id": 4
        },
        {
          "value": 1.0,
          "id": 5
        },
        {
          "value": 0.0,
          "id": 6
        },
        {
          "value": 0.0,
          "id": 7
        },
        {
          "value": 0.0,
          "id": 8
        },
        {
          "value": 0.0,
          "id": 9
        },
        {
          "value": 0.0,
          "id": 10
        },
        {
          "value": 0.0,
          "id": 11
        },
        {
          "value": 0.0,
          "id": 12
        },
        {
          "value": 0.0,
          "id": 13
        },
        {
          "value": 0.0,
          "id": 14
        },
        {
          "value": 0.053999926894903183,
          "id": 15
        },
        {
          "value": 1.0,
          "id": 16
        },
        {
          "value": 0.12000003457069397,
          "id": 17
        }
      ],
      "leftModuleId": 3884832096929117,
      "rightModuleId": 8530743540162359,
      "data": {
        "configurations": [
          {
            "type": 0,
            "loop": false
          },
          {
            "type": 0,
            "loop": false
          },
          {
            "type": 0,
            "loop": false
          },
          {
            "type": 0,
            "loop": true
          },
          {
            "type": 2,
            "loop": false
          },
          {
            "type": 0,
            "loop": true
          }
        ]
      },
      "pos": [
        22,
        2
      ]
    },
    {
      "id": 8530743540162359,
      "plugin": "Fundamental",
      "model": "SequentialSwitch1",
      "version": "2.0",
      "params": [
        {
          "value": 0.0,
          "id": 0
        }
      ],
      "leftModuleId": 5038784310106314,
      "rightModuleId": 1494984880086564,
      "pos": [
        36,
        2
      ]
    },
    {
      "id": 1494984880086564,
      "plugin": "Fundamental",
      "model": "Octave",
      "version": "2.0",
      "params": [
        {
          "value": -1.0,
          "id": 0
        }
      ],
      "leftModuleId": 8530743540162359,
      "rightModuleId": 6555026291875399,
      "pos": [
        39,
        2
      ]
    },
    {
      "id": 8457593349871196,
      "plugin": "AudibleInstruments",
      "model": "Plaits",
      "version": "2.0",
      "params": [
        {
          "value": 0.0,
          "id": 0
        },
        {
          "value": 0.0,
          "id": 1
        },
        {
          "value": 0.0,
          "id": 2
        },
        {
          "value": 0.5,
          "id": 3
        },
        {
          "value": 0.5,
          "id": 4
        },
        {
          "value": 0.5,
          "id": 5
        },
        {
          "value": 0.0,
          "id": 6
        },
        {
          "value": 0.0,
          "id": 7
        },
        {
          "value": 0.0,
          "id": 8
        },
        {
          "value": 0.5,
          "id": 9
        },
        {
          "value": 0.5,
          "id": 10
        }
      ],
      "leftModuleId": 6555026291875399,
      "rightModuleId": 8948319984476274,
      "data": {
        "lowCpu": false,
        "model": 13
      },
      "pos": [
        47,
        2
      ]
    },
    {
      "id": 6555026291875399,
      "plugin": "Fundamental",
      "model": "Random",
      "version": "2.0",
      "params": [
        {
          "value": 10.965784072875977,
          "id": 0
        },
        {
          "value": 1.0,
          "id": 1
        },
        {
          "value": 1.0,
          "id": 2
        },
        {
          "value": 1.0,
          "id": 3
        }
      ],
      "leftModuleId": 1494984880086564,
      "rightModuleId": 8457593349871196,
      "pos": [
        42,
        2
      ]
    },
    {
      "id": 8948319984476274,
      "plugin": "Fundamental",
      "model": "Delay",
      "version": "2.0",
      "params": [
        {
          "value": 0.71204811334609985,
          "id": 0
        },
        {
          "value": 0.21084335446357727,
          "id": 1
        },
        {
          "value": 1.0,
          "id": 2
        },
        {
          "value": 0.5,
          "id": 3
        }
      ],
      "leftModuleId": 8457593349871196,
      "rightModuleId": 8402252334806918,
      "pos": [
        59,
        2
      ]
    },
    {
      "id": 8402252334806918,
      "plugin": "Fundamental",
      "model": "LFO",
      "version": "2.0",
      "params": [
        {
          "value": 1.0,
          "id": 0
        },
        {
          "value": 1.0,
          "id": 1
        },
        {
          "value": 1.0,
          "id": 2
        },
        {
          "value": 0.0,
          "id": 3
        },
        {
          "value": 0.0,
          "id": 4
        },
        {
          "value": 0.5,
          "id": 5
        },
        {
          "value": 0.0,
          "id": 6
        }
      ],
      "leftModuleId": 8948319984476274,
      "rightModuleId": 3281813204404208,
      "pos": [
        67,
        2
      ]
    },
    {
      "id": 3281813204404208,
      "plugin": "Fundamental",
      "model": "SequentialSwitch2",
      "version": "2.0",
      "params": [
        {
          "value": 1.0,
          "id": 0
        }
      ],
      "leftModuleId": 8402252334806918,
      "rightModuleId": 7588738228676386,
      "pos": [
        77,
        2
      ]
    },
    {
      "id": 7588738228676386,
      "plugin": "Fundamental",
      "model": "SEQ3",
      "version": "2.0",
      "params": [
        {
          "value": 2.0,
          "id": 0
        },
        {
          "value": 0.0,
          "id": 1
        },
        {
          "value": 0.0,
          "id": 2
        },
        {
          "value": 5.0,
          "id": 3
        },
        {
          "value": 0.0,
          "id": 4
        },
        {
          "value": 10.0,
          "id": 5
        },
        {
          "value": 7.9397602081298828,
          "id": 6
        },
        {
          "value": 4.9759049415588379,
          "id": 7
        },
        {
          "value": 8.1325302124023438,
          "id": 8
        },
        {
          "value": 0.0,
          "id": 9
        },
        {
          "value": 0.0,
          "id": 10
        },
        {
          "value": 0.0,
          "id": 11
        },
        {
          "value": 1.5421688556671143,
          "id": 12
        },
        {
          "value": 10.0,
          "id": 13
        },
        {
          "value": 4.771085262298584,
          "id": 14
        },
        {
          "value": 10.0,
          "id": 15
        },
        {
          "value": 0.0,
          "id": 16
        },
        {
          "value": 0.0,
          "id": 17
        },
        {
          "value": 0.0,
          "id": 18
        },
        {
          "value": 0.0,
          "id": 19
        },
        {
          "value": 1.0602409839630127,
          "id": 20
        },
        {
          "value": 3.0000002384185791,
          "id": 21
        },
        {
          "value": 3.9879517555236816,
          "id": 22
        },
        {
          "value": 2.6626510620117188,
          "id": 23
        },
        {
          "value": 1.228915810585022,
          "id": 24
        },
        {
          "value": 0.0,
          "id": 25
        },
        {
          "value": 0.0,
          "id": 26
        },
        {
          "value": 0.0,
          "id": 27
        },
        {
          "value": 0.0,
          "id": 28
        },
        {
          "value": 0.0,
          "id": 29
        },
        {
          "value": 0.0,
          "id": 30
        },
        {
          "value": 0.0,
          "id": 31
        },
        {
          "value": 0.0,
          "id": 32
        },
        {
          "value": 0.0,
          "id": 33
        },
        {
          "value": 0.0,
          "id": 34
        },
        {
          "value": 0.0,
          "id": 35
        }
      ],
      "leftModuleId": 3281813204404208,
      "rightModuleId": 3080202282721968,
      "data": {
        "running": true,
        "gates": [
          1,
          1,
          1,
          1,
          1,
          0,
          0,
          0
        ]
      },
      "pos": [
        80,
        2
      ]
    },
    {
      "id": 3080202282721968,
      "plugin": "Fundamental",
      "model": "Noise",
      "version": "2.0",
      "params": [],
      "leftModuleId": 7588738228676386,
      "pos": [
        102,
        2
      ]
    },
    {
      "id": 8862534755091194,
      "plugin": "Fundamental",
      "model": "Delay",
      "version": "2.0",
      "params": [
        {
          "value": 0.5,
          "id": 0
        },
        {
          "value": 0.0,
          "id": 1
        },
        {
          "value": 0.68192750215530396,
          "id": 2
        },
        {
          "value": 0.68674713373184204,
          "id": 3
        }
      ],
      "pos": [
        103,
        0
      ]
    },
    {
      "id": 583229275454820,
      "plugin": "Fundamental",
      "model": "VCA-1",
      "version": "2.0",
      "params": [
        {
          "value": 1.0,
          "id": 0
        },
        {
          "value": 1.0,
          "id": 1
        }
      ],
      "pos": [
        93,
        0
      ]
    },
    {
      "id": 6673494357306977,
      "plugin": "Fundamental",
      "model": "MidSide",
      "version": "2.0",
      "params": [
        {
          "value": 0.59759038686752319,
          "id": 0
        },
        {
          "value": 1.0,
          "id": 1
        }
      ],
      "leftModuleId": 8789248072766864,
      "rightModuleId": 8990279575258379,
      "pos": [
        106,
        1
      ]
    },
    {
      "id": 8990279575258379,
      "plugin": "Core",
      "model": "AudioInterface2",
      "version": "2.0",
      "params": [
        {
          "value": 1.0,
          "id": 0
        }
      ],
      "leftModuleId": 6673494357306977,
      "data": {
        "audio": {
          "driver": 0,
          "deviceName": "Cardinal",
          "sampleRate": 48000.0,
          "blockSize": 256,
          "inputOffset": 0,
          "outputOffset": 0
        },
        "dcFilter": true
      },
      "pos": [
        111,
        1
      ]
    }
  ],
  "cables": [
    {
      "id": 1942206081161981,
      "outputModuleId": 6608587899376160,
      "outputId": 5,
      "inputModuleId": 6810943209341331,
      "inputId": 0,
      "color": "#67c12d"
    },
    {
      "id": 1101288658465605,
      "outputModuleId": 6608587899376160,
      "outputId": 5,
      "inputModuleId": 8856429113755519,
      "inputId": 0,
      "color": "#0f8df4"
    },
    {
      "id": 5173547995955555,
      "outputModuleId": 6810943209341331,
      "outputId": 0,
      "inputModuleId": 3779973950171530,
      "inputId": 0,
      "color": "#8c1889"
    },
    {
      "id": 2746706534409619,
      "outputModuleId": 8856429113755519,
      "outputId": 0,
      "inputModuleId": 3779973950171530,
      "inputId": 4,
      "color": "#fc2d5a"
    },
    {
      "id": 7439786673873302,
      "outputModuleId": 3779973950171530,
      "outputId": 0,
      "inputModuleId": 5041879696794767,
      "inputId": 3,
      "color": "#f9b130"
    },
    {
      "id": 4612424794729796,
      "outputModuleId": 872794373663690,
      "outputId": 1,
      "inputModuleId": 25,
      "inputId": 2,
      "color": "#8c1889"
    },
    {
      "id": 8275704470695001,
      "outputModuleId": 872794373663690,
      "outputId": 0,
      "inputModuleId": 25,
      "inputId": 1,
      "color": "#0f8df4"
    },
    {
      "id": 5322927939045852,
      "outputModuleId": 25,
      "outputId": 0,
      "inputModuleId": 8789248072766864,
      "inputId": 6,
      "color": "#fc2d5a"
    },
    {
      "id": 7987461493626552,
      "outputModuleId": 6810943209341331,
      "outputId": 0,
      "inputModuleId": 8856429113755519,
      "inputId": 2,
      "color": "#f9b130"
    },
    {
      "id": 4076279897994355,
      "outputModuleId": 5041879696794767,
      "outputId": 0,
      "inputModuleId": 872794373663690,
      "inputId": 7,
      "color": "#67c12d"
    },
    {
      "id": 3698232867820937,
      "outputModuleId": 6608587899376160,
      "outputId": 5,
      "inputModuleId": 872794373663690,
      "inputId": 6,
      "color": "#0f8df4"
    },
    {
      "id": 5980042817796449,
      "outputModuleId": 2558352717272193,
      "outputId": 0,
      "inputModuleId": 3884832096929117,
      "inputId": 1,
      "color": "#8c1889"
    },
    {
      "id": 5201594266446898,
      "outputModuleId": 6608587899376160,
      "outputId": 1,
      "inputModuleId": 2558352717272193,
      "inputId": 0,
      "color": "#fc2d5a"
    },
    {
      "id": 8387400271005156,
      "outputModuleId": 2558352717272193,
      "outputId": 2,
      "inputModuleId": 3884832096929117,
      "inputId": 2,
      "color": "#f9b130"
    },
    {
      "id": 6058625918807793,
      "outputModuleId": 3884832096929117,
      "outputId": 1,
      "inputModuleId": 5041879696794767,
      "inputId": 1,
      "color": "#67c12d"
    },
    {
      "id": 5621999619641675,
      "outputModuleId": 3884832096929117,
      "outputId": 2,
      "inputModuleId": 872794373663690,
      "inputId": 2,
      "color": "#0f8df4"
    },
    {
      "id": 5189690620284509,
      "outputModuleId": 3884832096929117,
      "outputId": 3,
      "inputModuleId": 872794373663690,
      "inputId": 0,
      "color": "#8c1889"
    },
    {
      "id": 7100436573102817,
      "outputModuleId": 3884832096929117,
      "outputId": 0,
      "inputModuleId": 5038784310106314,
      "inputId": 9,
      "color": "#fc2d5a"
    },
    {
      "id": 65839532902998,
      "outputModuleId": 5038784310106314,
      "outputId": 3,
      "inputModuleId": 8530743540162359,
      "inputId": 2,
      "color": "#67c12d"
    },
    {
      "id": 6623268959888249,
      "outputModuleId": 8530743540162359,
      "outputId": 1,
      "inputModuleId": 6810943209341331,
      "inputId": 1,
      "color": "#0f8df4"
    },
    {
      "id": 7667878399495305,
      "outputModuleId": 8530743540162359,
      "outputId": 3,
      "inputModuleId": 8856429113755519,
      "inputId": 1,
      "color": "#8c1889"
    },
    {
      "id": 5521171702781279,
      "outputModuleId": 3884832096929117,
      "outputId": 4,
      "inputModuleId": 2558352717272193,
      "inputId": 1,
      "color": "#fc2d5a"
    },
    {
      "id": 2032529278152290,
      "outputModuleId": 2558352717272193,
      "outputId": 1,
      "inputModuleId": 8530743540162359,
      "inputId": 0,
      "color": "#0f8df4"
    },
    {
      "id": 5669992591045887,
      "outputModuleId": 6608587899376160,
      "outputId": 4,
      "inputModuleId": 1494984880086564,
      "inputId": 0,
      "color": "#f9b130"
    },
    {
      "id": 4690064789860903,
      "outputModuleId": 1494984880086564,
      "outputId": 0,
      "inputModuleId": 6555026291875399,
      "inputId": 3,
      "color": "#67c12d"
    },
    {
      "id": 1996512667341259,
      "outputModuleId": 3884832096929117,
      "outputId": 4,
      "inputModuleId": 6555026291875399,
      "inputId": 2,
      "color": "#8c1889"
    },
    {
      "id": 2786006551395074,
      "outputModuleId": 6555026291875399,
      "outputId": 0,
      "inputModuleId": 8457593349871196,
      "inputId": 7,
      "color": "#fc2d5a"
    },
    {
      "id": 1261137346622954,
      "outputModuleId": 8457593349871196,
      "outputId": 0,
      "inputModuleId": 8948319984476274,
      "inputId": 4,
      "color": "#0f8df4"
    },
    {
      "id": 3651236325208065,
      "outputModuleId": 8948319984476274,
      "outputId": 0,
      "inputModuleId": 25,
      "inputId": 3,
      "color": "#67c12d"
    },
    {
      "id": 7048324783989209,
      "outputModuleId": 6555026291875399,
      "outputId": 2,
      "inputModuleId": 8457593349871196,
      "inputId": 4,
      "color": "#0f8df4"
    },
    {
      "id": 2412359320970609,
      "outputModuleId": 8402252334806918,
      "outputId": 1,
      "inputModuleId": 8948319984476274,
      "inputId": 0,
      "color": "#8c1889"
    },
    {
      "id": 6354142995028653,
      "outputModuleId": 5038784310106314,
      "outputId": 1,
      "inputModuleId": 5041879696794767,
      "inputId": 0,
      "color": "#f9b130"
    },
    {
      "id": 4854116392734385,
      "outputModuleId": 3884832096929117,
      "outputId": 0,
      "inputModuleId": 5038784310106314,
      "inputId": 7,
      "color": "#67c12d"
    },
    {
      "id": 6409582941131270,
      "outputModuleId": 6608587899376160,
      "outputId": 0,
      "inputModuleId": 8457593349871196,
      "inputId": 5,
      "color": "#f9b130"
    },
    {
      "id": 1958397481694957,
      "outputModuleId": 3884832096929117,
      "outputId": 2,
      "inputModuleId": 5038784310106314,
      "inputId": 2,
      "color": "#8c1889"
    },
    {
      "id": 1408885685562509,
      "outputModuleId": 3884832096929117,
      "outputId": 3,
      "inputModuleId": 5038784310106314,
      "inputId": 1,
      "color": "#fc2d5a"
    },
    {
      "id": 7622609704283608,
      "outputModuleId": 3281813204404208,
      "outputId": 0,
      "inputModuleId": 5041879696794767,
      "inputId": 2,
      "color": "#8c1889"
    },
    {
      "id": 7542505108943296,
      "outputModuleId": 8856429113755519,
      "outputId": 0,
      "inputModuleId": 3281813204404208,
      "inputId": 3,
      "color": "#fc2d5a"
    },
    {
      "id": 3104247498237601,
      "outputModuleId": 2558352717272193,
      "outputId": 3,
      "inputModuleId": 3281813204404208,
      "inputId": 0,
      "color": "#f9b130"
    },
    {
      "id": 2895694492523067,
      "outputModuleId": 3884832096929117,
      "outputId": 4,
      "inputModuleId": 7588738228676386,
      "inputId": 1,
      "color": "#0f8df4"
    },
    {
      "id": 6646370201915025,
      "outputModuleId": 7588738228676386,
      "outputId": 1,
      "inputModuleId": 6608587899376160,
      "inputId": 6,
      "color": "#8c1889"
    },
    {
      "id": 7140170468381373,
      "outputModuleId": 8862534755091194,
      "outputId": 0,
      "inputModuleId": 25,
      "inputId": 4,
      "color": "#f9b130"
    },
    {
      "id": 6615335749257376,
      "outputModuleId": 3080202282721968,
      "outputId": 1,
      "inputModuleId": 583229275454820,
      "inputId": 1,
      "color": "#f9b130"
    },
    {
      "id": 6290156239312795,
      "outputModuleId": 583229275454820,
      "outputId": 0,
      "inputModuleId": 8862534755091194,
      "inputId": 4,
      "color": "#67c12d"
    },
    {
      "id": 7015561284075843,
      "outputModuleId": 5038784310106314,
      "outputId": 0,
      "inputModuleId": 583229275454820,
      "inputId": 0,
      "color": "#0f8df4"
    },
    {
      "id": 2552788456592550,
      "outputModuleId": 8402252334806918,
      "outputId": 3,
      "inputModuleId": 8862534755091194,
      "inputId": 0,
      "color": "#8c1889"
    },
    {
      "id": 1955945902049094,
      "outputModuleId": 6608587899376160,
      "outputId": 2,
      "inputModuleId": 5038784310106314,
      "inputId": 6,
      "color": "#fc2d5a"
    },
    {
      "id": 394764689998154,
      "outputModuleId": 6608587899376160,
      "outputId": 6,
      "inputModuleId": 5038784310106314,
      "inputId": 0,
      "color": "#f9b130"
    },
    {
      "id": 952320465900585,
      "outputModuleId": 7588738228676386,
      "outputId": 2,
      "inputModuleId": 8862534755091194,
      "inputId": 1,
      "color": "#67c12d"
    },
    {
      "id": 7929803959475749,
      "outputModuleId": 8789248072766864,
      "outputId": 0,
      "inputModuleId": 6673494357306977,
      "inputId": 1,
      "color": "#0f8df4"
    },
    {
      "id": 8832845363993886,
      "outputModuleId": 8789248072766864,
      "outputId": 1,
      "inputModuleId": 6673494357306977,
      "inputId": 2,
      "color": "#8c1889"
    },
    {
      "id": 7518139863914023,
      "outputModuleId": 6673494357306977,
      "outputId": 0,
      "inputModuleId": 6673494357306977,
      "inputId": 4,
      "color": "#fc2d5a"
    },
    {
      "id": 6785198893925571,
      "outputModuleId": 6673494357306977,
      "outputId": 1,
      "inputModuleId": 6673494357306977,
      "inputId": 5,
      "color": "#f9b130"
    },
    {
      "id": 4452617176247149,
      "outputModuleId": 7588738228676386,
      "outputId": 3,
      "inputModuleId": 6673494357306977,
      "inputId": 0,
      "color": "#67c12d"
    },
    {
      "id": 804203241341728,
      "outputModuleId": 6673494357306977,
      "outputId": 2,
      "inputModuleId": 8990279575258379,
      "inputId": 0,
      "color": "#fc2d5a"
    },
    {
      "id": 4656273281607022,
      "outputModuleId": 6673494357306977,
      "outputId": 3,
      "inputModuleId": 8990279575258379,
      "inputId": 1,
      "color": "#f9b130"
    }
  ],
  "masterModuleId": 8990279575258379
}
