{
  "version": "2.0",
  "zoom": 1.0,
  "gridOffset": [
    -2.3333332538604736,
    0.71315789222717285
  ],
  "modules": [
    {
      "id": 35699846797895,
      "plugin": "AriaSalvatrice",
      "model": "Solomon4",
      "version": "2.0",
      "params": [
        {
          "value": 0.0,
          "id": 0
        },
        {
          "value": 2.0,
          "id": 1
        },
        {
          "value": 3.0,
          "id": 2
        },
        {
          "value": 5.0,
          "id": 3
        },
        {
          "value": 0.0,
          "id": 4
        },
        {
          "value": 4.0,
          "id": 5
        },
        {
          "value": 0.0,
          "id": 6
        },
        {
          "value": 0.0,
          "id": 7
        },
        {
          "value": 0.0,
          "id": 8
        },
        {
          "value": 0.0,
          "id": 9
        },
        {
          "value": 0.0,
          "id": 10
        },
        {
          "value": 0.0,
          "id": 11
        },
        {
          "value": 0.0,
          "id": 12
        },
        {
          "value": 0.0,
          "id": 13
        },
        {
          "value": 0.0,
          "id": 14
        },
        {
          "value": 0.0,
          "id": 15
        },
        {
          "value": 0.0,
          "id": 16
        },
        {
          "value": 0.0,
          "id": 17
        },
        {
          "value": 0.0,
          "id": 18
        },
        {
          "value": 0.0,
          "id": 19
        },
        {
          "value": 0.0,
          "id": 20
        },
        {
          "value": 0.0,
          "id": 21
        }
      ],
      "data": {
        "currentNode": 0,
        "resetStepConfig": true,
        "resetLoadConfig": true,
        "resetQuantizeConfig": false,
        "scale": [
          true,
          false,
          true,
          true,
          false,
          true,
          false,
          true,
          true,
          false,
          true,
          false
        ],
        "cv": [
          -1.0,
          0.0,
          1.0,
          0.0
        ],
        "savedCv": [
          0.0,
          0.0,
          0.0,
          0.0
        ],
        "queue": [
          true,
          false,
          false,
          false
        ],
        "delay": [
          false,
          true,
          false,
          false
        ]
      },
      "pos": [
        9,
        2
      ]
    },
    {
      "id": 2951388816352700,
      "plugin": "AriaSalvatrice",
      "model": "Solomon4",
      "version": "2.0",
      "params": [
        {
          "value": 0.0,
          "id": 0
        },
        {
          "value": 2.0,
          "id": 1
        },
        {
          "value": 3.0,
          "id": 2
        },
        {
          "value": 5.0,
          "id": 3
        },
        {
          "value": 0.0,
          "id": 4
        },
        {
          "value": 4.0,
          "id": 5
        },
        {
          "value": 0.0,
          "id": 6
        },
        {
          "value": 0.0,
          "id": 7
        },
        {
          "value": 0.0,
          "id": 8
        },
        {
          "value": 0.0,
          "id": 9
        },
        {
          "value": 0.0,
          "id": 10
        },
        {
          "value": 0.0,
          "id": 11
        },
        {
          "value": 0.0,
          "id": 12
        },
        {
          "value": 0.0,
          "id": 13
        },
        {
          "value": 0.0,
          "id": 14
        },
        {
          "value": 0.0,
          "id": 15
        },
        {
          "value": 0.0,
          "id": 16
        },
        {
          "value": 0.0,
          "id": 17
        },
        {
          "value": 0.0,
          "id": 18
        },
        {
          "value": 0.0,
          "id": 19
        },
        {
          "value": 0.0,
          "id": 20
        },
        {
          "value": 0.0,
          "id": 21
        }
      ],
      "data": {
        "currentNode": 2,
        "resetStepConfig": true,
        "resetLoadConfig": true,
        "resetQuantizeConfig": false,
        "scale": [
          true,
          false,
          true,
          true,
          false,
          true,
          false,
          true,
          true,
          false,
          true,
          false
        ],
        "cv": [
          0.0,
          0.0,
          0.0,
          0.0
        ],
        "savedCv": [
          0.0,
          0.0,
          0.0,
          0.0
        ],
        "queue": [
          true,
          false,
          false,
          false
        ],
        "delay": [
          false,
          false,
          false,
          true
        ]
      },
      "pos": [
        9,
        1
      ]
    },
    {
      "id": 2277606983357641,
      "plugin": "AudibleInstruments",
      "model": "Braids",
      "version": "2.0",
      "params": [
        {
          "value": 0.0,
          "id": 0
        },
        {
          "value": 1.0,
          "id": 1
        },
        {
          "value": 0.0,
          "id": 2
        },
        {
          "value": 0.5048145055770874,
          "id": 3
        },
        {
          "value": 1.0,
          "id": 4
        },
        {
          "value": 0.33132624626159668,
          "id": 5
        },
        {
          "value": 0.23734927177429199,
          "id": 6
        }
      ],
      "data": {
        "settings": [
          11,
          0,
          0,
          0,
          0,
          0,
          0,
          0,
          0,
          0,
          0,
          0,
          0,
          0,
          0,
          0,
          0,
          0,
          0,
          0
        ],
        "lowCpu": false
      },
      "pos": [
        40,
        1
      ]
    },
    {
      "id": 6330620524990485,
      "plugin": "AudibleInstruments",
      "model": "Braids",
      "version": "2.0",
      "params": [
        {
          "value": 0.0,
          "id": 0
        },
        {
          "value": -1.0,
          "id": 1
        },
        {
          "value": 0.0,
          "id": 2
        },
        {
          "value": 0.5,
          "id": 3
        },
        {
          "value": 0.5,
          "id": 4
        },
        {
          "value": 0.5,
          "id": 5
        },
        {
          "value": 0.18674689531326294,
          "id": 6
        }
      ],
      "data": {
        "settings": [
          9,
          0,
          0,
          0,
          0,
          0,
          0,
          0,
          0,
          0,
          0,
          0,
          0,
          0,
          0,
          0,
          0,
          0,
          0,
          0
        ],
        "lowCpu": false
      },
      "pos": [
        40,
        2
      ]
    },
    {
      "id": 5381696826590384,
      "plugin": "AudibleInstruments",
      "model": "Veils",
      "version": "2.0",
      "params": [
        {
          "value": 0.25,
          "id": 0
        },
        {
          "value": 1.0,
          "id": 1
        },
        {
          "value": 0.39759060740470886,
          "id": 2
        },
        {
          "value": 0.41999998688697815,
          "id": 3
        },
        {
          "value": 1.0,
          "id": 4
        },
        {
          "value": 1.0,
          "id": 5
        },
        {
          "value": 0.98799788951873779,
          "id": 6
        },
        {
          "value": 1.0,
          "id": 7
        }
      ],
      "pos": [
        57,
        1
      ]
    },
    {
      "id": 3171451574323667,
      "plugin": "AriaSalvatrice",
      "model": "Smerge",
      "version": "2.0",
      "params": [
        {
          "value": 0.0,
          "id": 0
        }
      ],
      "pos": [
        70,
        1
      ]
    },
    {
      "id": 8948914620239562,
      "plugin": "AudibleInstruments",
      "model": "Plaits",
      "version": "2.0",
      "params": [
        {
          "value": 0.0,
          "id": 0
        },
        {
          "value": 0.0,
          "id": 1
        },
        {
          "value": -2.2072277069091797,
          "id": 2
        },
        {
          "value": 0.65421748161315918,
          "id": 3
        },
        {
          "value": 0.86505788564682007,
          "id": 4
        },
        {
          "value": 0.56626325845718384,
          "id": 5
        },
        {
          "value": 0.0,
          "id": 6
        },
        {
          "value": 0.0,
          "id": 7
        },
        {
          "value": 0.0,
          "id": 8
        },
        {
          "value": 0.5,
          "id": 9
        },
        {
          "value": 0.5,
          "id": 10
        }
      ],
      "data": {
        "lowCpu": false,
        "model": 13
      },
      "pos": [
        40,
        0
      ]
    },
    {
      "id": 2221140964918574,
      "plugin": "Bogaudio",
      "model": "Bogaudio-Pressor",
      "version": "2.0",
      "params": [
        {
          "value": 0.80000001192092896,
          "id": 0
        },
        {
          "value": 0.35641360282897949,
          "id": 1
        },
        {
          "value": 0.31622999906539917,
          "id": 2
        },
        {
          "value": 0.31622999906539917,
          "id": 3
        },
        {
          "value": 0.0,
          "id": 4
        },
        {
          "value": 0.0,
          "id": 5
        },
        {
          "value": 0.0,
          "id": 6
        },
        {
          "value": 1.0,
          "id": 7
        },
        {
          "value": 1.0,
          "id": 8
        },
        {
          "value": 0.0,
          "id": 9
        }
      ],
      "data": {
        "threshold_range": 1.0
      },
      "pos": [
        76,
        1
      ]
    },
    {
      "id": 277946122518163,
      "plugin": "MindMeldModular",
      "model": "EqMaster",
      "version": "2.0",
      "params": [
        {
          "value": 0.0,
          "id": 0
        },
        {
          "value": 1.0,
          "id": 1
        },
        {
          "value": 0.0,
          "id": 2
        },
        {
          "value": 1.0,
          "id": 3
        },
        {
          "value": 1.0,
          "id": 4
        },
        {
          "value": 1.0,
          "id": 5
        },
        {
          "value": 1.0,
          "id": 6
        },
        {
          "value": 2.0,
          "id": 7
        },
        {
          "value": 2.5440680980682373,
          "id": 8
        },
        {
          "value": 3.4471762180328369,
          "id": 9
        },
        {
          "value": 3.9781243801116943,
          "id": 10
        },
        {
          "value": 0.0,
          "id": 11
        },
        {
          "value": 0.0,
          "id": 12
        },
        {
          "value": 6.6377222537994385e-5,
          "id": 13
        },
        {
          "value": -14.505993843078613,
          "id": 14
        },
        {
          "value": 6.8150792121887207,
          "id": 15
        },
        {
          "value": 3.0,
          "id": 16
        },
        {
          "value": 5.5159144401550293,
          "id": 17
        },
        {
          "value": 0.30000001192092896,
          "id": 18
        },
        {
          "value": 0.0,
          "id": 19
        },
        {
          "value": 0.0,
          "id": 20
        },
        {
          "value": 0.0,
          "id": 21
        }
      ],
      "data": {
        "mappedId": 0,
        "trackLabels": "-01--02--03--04--05--06--07--08--09--10--11--12--13--14--15--16-GRP1GRP2GRP3GRP4AUX1AUX2AUX3AUX4",
        "trackLabelColors": [
          0,
          0,
          0,
          0,
          0,
          0,
          0,
          0,
          0,
          0,
          0,
          0,
          0,
          0,
          0,
          0,
          0,
          0,
          0,
          0,
          0,
          0,
          0,
          0
        ],
        "trackVuColors": [
          0,
          0,
          0,
          0,
          0,
          0,
          0,
          0,
          0,
          0,
          0,
          0,
          0,
          0,
          0,
          0,
          0,
          0,
          0,
          0,
          0,
          0,
          0,
          0
        ],
        "miscSettings": 117507585,
        "miscSettings2": 512,
        "showFreqAsNotes": 0,
        "active": [
          true,
          true,
          true,
          true,
          true,
          true,
          true,
          true,
          true,
          true,
          true,
          true,
          true,
          true,
          true,
          true,
          true,
          true,
          true,
          true,
          true,
          true,
          true,
          true
        ],
        "bandActive": [
          1.0,
          1.0,
          1.0,
          1.0,
          1.0,
          1.0,
          1.0,
          1.0,
          1.0,
          1.0,
          1.0,
          1.0,
          1.0,
          1.0,
          1.0,
          1.0,
          1.0,
          1.0,
          1.0,
          1.0,
          1.0,
          1.0,
          1.0,
          1.0,
          1.0,
          1.0,
          1.0,
          1.0,
          1.0,
          1.0,
          1.0,
          1.0,
          1.0,
          1.0,
          1.0,
          1.0,
          1.0,
          1.0,
          1.0,
          1.0,
          1.0,
          1.0,
          1.0,
          1.0,
          1.0,
          1.0,
          1.0,
          1.0,
          1.0,
          1.0,
          1.0,
          1.0,
          1.0,
          1.0,
          1.0,
          1.0,
          1.0,
          1.0,
          1.0,
          1.0,
          1.0,
          1.0,
          1.0,
          1.0,
          1.0,
          1.0,
          1.0,
          1.0,
          1.0,
          1.0,
          1.0,
          1.0,
          1.0,
          1.0,
          1.0,
          1.0,
          1.0,
          1.0,
          1.0,
          1.0,
          1.0,
          1.0,
          1.0,
          1.0,
          1.0,
          1.0,
          1.0,
          1.0,
          1.0,
          1.0,
          1.0,
          1.0,
          1.0,
          1.0,
          1.0,
          1.0
        ],
        "freq": [
          2.0,
          2.5440680980682373,
          3.4471762180328369,
          3.9781243801116943,
          2.0,
          2.5440680980682373,
          3.176091194152832,
          3.6989700794219971,
          2.0,
          2.5440680980682373,
          3.176091194152832,
          3.6989700794219971,
          2.0,
          2.5440680980682373,
          3.176091194152832,
          3.6989700794219971,
          2.0,
          2.5440680980682373,
          3.176091194152832,
          3.6989700794219971,
          2.0,
          2.5440680980682373,
          3.176091194152832,
          3.6989700794219971,
          2.0,
          2.5440680980682373,
          3.176091194152832,
          3.6989700794219971,
          2.0,
          2.5440680980682373,
          3.176091194152832,
          3.6989700794219971,
          2.0,
          2.5440680980682373,
          3.176091194152832,
          3.6989700794219971,
          2.0,
          2.5440680980682373,
          3.176091194152832,
          3.6989700794219971,
          2.0,
          2.5440680980682373,
          3.176091194152832,
          3.6989700794219971,
          2.0,
          2.5440680980682373,
          3.176091194152832,
          3.6989700794219971,
          2.0,
          2.5440680980682373,
          3.176091194152832,
          3.6989700794219971,
          2.0,
          2.5440680980682373,
          3.176091194152832,
          3.6989700794219971,
          2.0,
          2.5440680980682373,
          3.176091194152832,
          3.6989700794219971,
          2.0,
          2.5440680980682373,
          3.176091194152832,
          3.6989700794219971,
          2.0,
          2.5440680980682373,
          3.176091194152832,
          3.6989700794219971,
          2.0,
          2.5440680980682373,
          3.176091194152832,
          3.6989700794219971,
          2.0,
          2.5440680980682373,
          3.176091194152832,
          3.6989700794219971,
          2.0,
          2.5440680980682373,
          3.176091194152832,
          3.6989700794219971,
          2.0,
          2.5440680980682373,
          3.176091194152832,
          3.6989700794219971,
          2.0,
          2.5440680980682373,
          3.176091194152832,
          3.6989700794219971,
          2.0,
          2.5440680980682373,
          3.176091194152832,
          3.6989700794219971,
          2.0,
          2.5440680980682373,
          3.176091194152832,
          3.6989700794219971
        ],
        "gain": [
          0.0,
          0.0,
          6.6377222537994385e-5,
          -14.505993843078613,
          0.0,
          0.0,
          0.0,
          0.0,
          0.0,
          0.0,
          0.0,
          0.0,
          0.0,
          0.0,
          0.0,
          0.0,
          0.0,
          0.0,
          0.0,
          0.0,
          0.0,
          0.0,
          0.0,
          0.0,
          0.0,
          0.0,
          0.0,
          0.0,
          0.0,
          0.0,
          0.0,
          0.0,
          0.0,
          0.0,
          0.0,
          0.0,
          0.0,
          0.0,
          0.0,
          0.0,
          0.0,
          0.0,
          0.0,
          0.0,
          0.0,
          0.0,
          0.0,
          0.0,
          0.0,
          0.0,
          0.0,
          0.0,
          0.0,
          0.0,
          0.0,
          0.0,
          0.0,
          0.0,
          0.0,
          0.0,
          0.0,
          0.0,
          0.0,
          0.0,
          0.0,
          0.0,
          0.0,
          0.0,
          0.0,
          0.0,
          0.0,
          0.0,
          0.0,
          0.0,
          0.0,
          0.0,
          0.0,
          0.0,
          0.0,
          0.0,
          0.0,
          0.0,
          0.0,
          0.0,
          0.0,
          0.0,
          0.0,
          0.0,
          0.0,
          0.0,
          0.0,
          0.0,
          0.0,
          0.0,
          0.0,
          0.0
        ],
        "q": [
          6.8150792121887207,
          3.0,
          5.5159144401550293,
          0.30000001192092896,
          1.0,
          3.0,
          3.0,
          1.0,
          1.0,
          3.0,
          3.0,
          1.0,
          1.0,
          3.0,
          3.0,
          1.0,
          1.0,
          3.0,
          3.0,
          1.0,
          1.0,
          3.0,
          3.0,
          1.0,
          1.0,
          3.0,
          3.0,
          1.0,
          1.0,
          3.0,
          3.0,
          1.0,
          1.0,
          3.0,
          3.0,
          1.0,
          1.0,
          3.0,
          3.0,
          1.0,
          1.0,
          3.0,
          3.0,
          1.0,
          1.0,
          3.0,
          3.0,
          1.0,
          1.0,
          3.0,
          3.0,
          1.0,
          1.0,
          3.0,
          3.0,
          1.0,
          1.0,
          3.0,
          3.0,
          1.0,
          1.0,
          3.0,
          3.0,
          1.0,
          1.0,
          3.0,
          3.0,
          1.0,
          1.0,
          3.0,
          3.0,
          1.0,
          1.0,
          3.0,
          3.0,
          1.0,
          1.0,
          3.0,
          3.0,
          1.0,
          1.0,
          3.0,
          3.0,
          1.0,
          1.0,
          3.0,
          3.0,
          1.0,
          1.0,
          3.0,
          3.0,
          1.0,
          1.0,
          3.0,
          3.0,
          1.0
        ],
        "freqCvAtten": [
          1.0,
          1.0,
          1.0,
          1.0,
          1.0,
          1.0,
          1.0,
          1.0,
          1.0,
          1.0,
          1.0,
          1.0,
          1.0,
          1.0,
          1.0,
          1.0,
          1.0,
          1.0,
          1.0,
          1.0,
          1.0,
          1.0,
          1.0,
          1.0,
          1.0,
          1.0,
          1.0,
          1.0,
          1.0,
          1.0,
          1.0,
          1.0,
          1.0,
          1.0,
          1.0,
          1.0,
          1.0,
          1.0,
          1.0,
          1.0,
          1.0,
          1.0,
          1.0,
          1.0,
          1.0,
          1.0,
          1.0,
          1.0,
          1.0,
          1.0,
          1.0,
          1.0,
          1.0,
          1.0,
          1.0,
          1.0,
          1.0,
          1.0,
          1.0,
          1.0,
          1.0,
          1.0,
          1.0,
          1.0,
          1.0,
          1.0,
          1.0,
          1.0,
          1.0,
          1.0,
          1.0,
          1.0,
          1.0,
          1.0,
          1.0,
          1.0,
          1.0,
          1.0,
          1.0,
          1.0,
          1.0,
          1.0,
          1.0,
          1.0,
          1.0,
          1.0,
          1.0,
          1.0,
          1.0,
          1.0,
          1.0,
          1.0,
          1.0,
          1.0,
          1.0,
          1.0
        ],
        "gainCvAtten": [
          1.0,
          1.0,
          1.0,
          1.0,
          1.0,
          1.0,
          1.0,
          1.0,
          1.0,
          1.0,
          1.0,
          1.0,
          1.0,
          1.0,
          1.0,
          1.0,
          1.0,
          1.0,
          1.0,
          1.0,
          1.0,
          1.0,
          1.0,
          1.0,
          1.0,
          1.0,
          1.0,
          1.0,
          1.0,
          1.0,
          1.0,
          1.0,
          1.0,
          1.0,
          1.0,
          1.0,
          1.0,
          1.0,
          1.0,
          1.0,
          1.0,
          1.0,
          1.0,
          1.0,
          1.0,
          1.0,
          1.0,
          1.0,
          1.0,
          1.0,
          1.0,
          1.0,
          1.0,
          1.0,
          1.0,
          1.0,
          1.0,
          1.0,
          1.0,
          1.0,
          1.0,
          1.0,
          1.0,
          1.0,
          1.0,
          1.0,
          1.0,
          1.0,
          1.0,
          1.0,
          1.0,
          1.0,
          1.0,
          1.0,
          1.0,
          1.0,
          1.0,
          1.0,
          1.0,
          1.0,
          1.0,
          1.0,
          1.0,
          1.0,
          1.0,
          1.0,
          1.0,
          1.0,
          1.0,
          1.0,
          1.0,
          1.0,
          1.0,
          1.0,
          1.0,
          1.0
        ],
        "qCvAtten": [
          1.0,
          1.0,
          1.0,
          1.0,
          1.0,
          1.0,
          1.0,
          1.0,
          1.0,
          1.0,
          1.0,
          1.0,
          1.0,
          1.0,
          1.0,
          1.0,
          1.0,
          1.0,
          1.0,
          1.0,
          1.0,
          1.0,
          1.0,
          1.0,
          1.0,
          1.0,
          1.0,
          1.0,
          1.0,
          1.0,
          1.0,
          1.0,
          1.0,
          1.0,
          1.0,
          1.0,
          1.0,
          1.0,
          1.0,
          1.0,
          1.0,
          1.0,
          1.0,
          1.0,
          1.0,
          1.0,
          1.0,
          1.0,
          1.0,
          1.0,
          1.0,
          1.0,
          1.0,
          1.0,
          1.0,
          1.0,
          1.0,
          1.0,
          1.0,
          1.0,
          1.0,
          1.0,
          1.0,
          1.0,
          1.0,
          1.0,
          1.0,
          1.0,
          1.0,
          1.0,
          1.0,
          1.0,
          1.0,
          1.0,
          1.0,
          1.0,
          1.0,
          1.0,
          1.0,
          1.0,
          1.0,
          1.0,
          1.0,
          1.0,
          1.0,
          1.0,
          1.0,
          1.0,
          1.0,
          1.0,
          1.0,
          1.0,
          1.0,
          1.0,
          1.0,
          1.0
        ],
        "lowPeak": [
          false,
          false,
          false,
          false,
          false,
          false,
          false,
          false,
          false,
          false,
          false,
          false,
          false,
          false,
          false,
          false,
          false,
          false,
          false,
          false,
          false,
          false,
          false,
          false
        ],
        "highPeak": [
          false,
          false,
          false,
          false,
          false,
          false,
          false,
          false,
          false,
          false,
          false,
          false,
          false,
          false,
          false,
          false,
          false,
          false,
          false,
          false,
          false,
          false,
          false,
          false
        ],
        "trackGain": [
          0.0,
          0.0,
          0.0,
          0.0,
          0.0,
          0.0,
          0.0,
          0.0,
          0.0,
          0.0,
          0.0,
          0.0,
          0.0,
          0.0,
          0.0,
          0.0,
          0.0,
          0.0,
          0.0,
          0.0,
          0.0,
          0.0,
          0.0,
          0.0
        ]
      },
      "pos": [
        57,
        2
      ]
    },
    {
      "id": 5069827743823511,
      "plugin": "AudibleInstruments",
      "model": "Plaits",
      "version": "2.0",
      "params": [
        {
          "value": 0.0,
          "id": 0
        },
        {
          "value": 0.0,
          "id": 1
        },
        {
          "value": -2.6987936496734619,
          "id": 2
        },
        {
          "value": 0.63975757360458374,
          "id": 3
        },
        {
          "value": 0.5,
          "id": 4
        },
        {
          "value": 0.65541672706604004,
          "id": 5
        },
        {
          "value": 0.0,
          "id": 6
        },
        {
          "value": 0.0,
          "id": 7
        },
        {
          "value": 0.0,
          "id": 8
        },
        {
          "value": 0.5,
          "id": 9
        },
        {
          "value": 0.5,
          "id": 10
        }
      ],
      "data": {
        "lowCpu": false,
        "model": 15
      },
      "pos": [
        53,
        0
      ]
    },
    {
      "id": 3734508887212317,
      "plugin": "Bogaudio",
      "model": "Bogaudio-AddrSeq",
      "version": "2.0",
      "params": [
        {
          "value": 8.0,
          "id": 0
        },
        {
          "value": 1.0,
          "id": 1
        },
        {
          "value": 0.0,
          "id": 2
        },
        {
          "value": 1.0,
          "id": 3
        },
        {
          "value": 0.0,
          "id": 4
        },
        {
          "value": 0.0,
          "id": 5
        },
        {
          "value": 0.0,
          "id": 6
        },
        {
          "value": 0.0,
          "id": 7
        },
        {
          "value": 0.0,
          "id": 8
        },
        {
          "value": 0.0,
          "id": 9
        },
        {
          "value": 0.0,
          "id": 10
        }
      ],
      "data": {
        "poly_input": 0,
        "select_on_clock": false,
        "triggered_select": false,
        "reverse_on_negative_clock": false,
        "wrap_select_at_steps": false,
        "range_offset": 0.0,
        "range_scale": 10.0
      },
      "pos": [
        33,
        0
      ]
    },
    {
      "id": 6450383724882435,
      "plugin": "Cardinal",
      "model": "HostTime",
      "version": "2.0",
      "params": [],
      "pos": [
        0,
        1
      ]
    },
    {
      "id": 3875460575455111,
      "plugin": "Cardinal",
      "model": "HostAudio2",
      "version": "2.0",
      "params": [
        {
          "value": 1.0,
          "id": 0
        }
      ],
      "data": {
        "dcFilter": true
      },
      "pos": [
        92,
        1
      ]
    }
  ],
  "cables": [
    {
      "id": 3879034681795207,
      "outputModuleId": 6450383724882435,
      "outputId": 1,
      "inputModuleId": 35699846797895,
      "inputId": 6,
      "color": "#52ff7d"
    },
    {
      "id": 4296236685830349,
      "outputModuleId": 6450383724882435,
      "outputId": 2,
      "inputModuleId": 35699846797895,
      "inputId": 19,
      "color": "#52ff7d"
    },
    {
      "id": 550845590948129,
      "outputModuleId": 6450383724882435,
      "outputId": 4,
      "inputModuleId": 2951388816352700,
      "inputId": 3,
      "color": "#52beff"
    },
    {
      "id": 7984091090654859,
      "outputModuleId": 6450383724882435,
      "outputId": 1,
      "inputModuleId": 2951388816352700,
      "inputId": 6,
      "color": "#52beff"
    },
    {
      "id": 3088442815285559,
      "outputModuleId": 6450383724882435,
      "outputId": 3,
      "inputModuleId": 2951388816352700,
      "inputId": 20,
      "color": "#52beff"
    },
    {
      "id": 340767238986388,
      "outputModuleId": 6450383724882435,
      "outputId": 3,
      "inputModuleId": 2951388816352700,
      "inputId": 38,
      "color": "#52beff"
    },
    {
      "id": 5571912669669509,
      "outputModuleId": 2951388816352700,
      "outputId": 1,
      "inputModuleId": 2277606983357641,
      "inputId": 1,
      "color": "#e952ff"
    },
    {
      "id": 6345355531046783,
      "outputModuleId": 2951388816352700,
      "outputId": 0,
      "inputModuleId": 2277606983357641,
      "inputId": 0,
      "color": "#e952ff"
    },
    {
      "id": 3116287742316245,
      "outputModuleId": 35699846797895,
      "outputId": 1,
      "inputModuleId": 6330620524990485,
      "inputId": 1,
      "color": "#ff52d4"
    },
    {
      "id": 2685879188434358,
      "outputModuleId": 35699846797895,
      "outputId": 0,
      "inputModuleId": 6330620524990485,
      "inputId": 0,
      "color": "#ff52d4"
    },
    {
      "id": 6983040148569600,
      "outputModuleId": 6450383724882435,
      "outputId": 4,
      "inputModuleId": 35699846797895,
      "inputId": 3,
      "color": "#52ff7d"
    },
    {
      "id": 8683117150797799,
      "outputModuleId": 2277606983357641,
      "outputId": 0,
      "inputModuleId": 5381696826590384,
      "inputId": 0,
      "color": "#6752ff"
    },
    {
      "id": 2983506790309,
      "outputModuleId": 6450383724882435,
      "outputId": 0,
      "inputModuleId": 5381696826590384,
      "inputId": 4,
      "color": "#ff5252"
    },
    {
      "id": 3128968426971666,
      "outputModuleId": 6450383724882435,
      "outputId": 0,
      "inputModuleId": 5381696826590384,
      "inputId": 5,
      "color": "#ff5252"
    },
    {
      "id": 2505783353362064,
      "outputModuleId": 6450383724882435,
      "outputId": 0,
      "inputModuleId": 5381696826590384,
      "inputId": 6,
      "color": "#ff5252"
    },
    {
      "id": 4287084558237132,
      "outputModuleId": 6450383724882435,
      "outputId": 0,
      "inputModuleId": 5381696826590384,
      "inputId": 7,
      "color": "#ff5252"
    },
    {
      "id": 1350136440298596,
      "outputModuleId": 5381696826590384,
      "outputId": 3,
      "inputModuleId": 3171451574323667,
      "inputId": 4,
      "color": "#ff9352"
    },
    {
      "id": 5252415231671254,
      "outputModuleId": 5381696826590384,
      "outputId": 1,
      "inputModuleId": 3171451574323667,
      "inputId": 2,
      "color": "#ff9352"
    },
    {
      "id": 7319159510775432,
      "outputModuleId": 5381696826590384,
      "outputId": 2,
      "inputModuleId": 3171451574323667,
      "inputId": 3,
      "color": "#ff9352"
    },
    {
      "id": 8555920591101455,
      "outputModuleId": 6450383724882435,
      "outputId": 3,
      "inputModuleId": 8948914620239562,
      "inputId": 5,
      "color": "#527dff"
    },
    {
      "id": 7742135675055406,
      "outputModuleId": 8948914620239562,
      "outputId": 0,
      "inputModuleId": 5381696826590384,
      "inputId": 1,
      "color": "#527dff"
    },
    {
      "id": 8374725293796930,
      "outputModuleId": 8948914620239562,
      "outputId": 0,
      "inputModuleId": 2221140964918574,
      "inputId": 1,
      "color": "#527dff"
    },
    {
      "id": 5382775735494326,
      "outputModuleId": 3171451574323667,
      "outputId": 0,
      "inputModuleId": 2221140964918574,
      "inputId": 0,
      "color": "#ff9352"
    },
    {
      "id": 2736682000628632,
      "outputModuleId": 2221140964918574,
      "outputId": 1,
      "inputModuleId": 3875460575455111,
      "inputId": 0,
      "color": "#ff9352"
    },
    {
      "id": 2534930774007889,
      "outputModuleId": 6330620524990485,
      "outputId": 0,
      "inputModuleId": 277946122518163,
      "inputId": 0,
      "color": "#67ff52"
    },
    {
      "id": 1344143679898461,
      "outputModuleId": 277946122518163,
      "outputId": 0,
      "inputModuleId": 5381696826590384,
      "inputId": 3,
      "color": "#67ff52"
    },
    {
      "id": 1331769002300046,
      "outputModuleId": 6450383724882435,
      "outputId": 2,
      "inputModuleId": 35699846797895,
      "inputId": 37,
      "color": "#52ff7d"
    },
    {
      "id": 5078581539636826,
      "outputModuleId": 5069827743823511,
      "outputId": 0,
      "inputModuleId": 5381696826590384,
      "inputId": 2,
      "color": "#527dff"
    },
    {
      "id": 6292825456250996,
      "outputModuleId": 6450383724882435,
      "outputId": 4,
      "inputModuleId": 3734508887212317,
      "inputId": 0,
      "color": "#ff5252"
    },
    {
      "id": 2334455690594678,
      "outputModuleId": 3734508887212317,
      "outputId": 0,
      "inputModuleId": 5069827743823511,
      "inputId": 5,
      "color": "#ff5252"
    },
    {
      "id": 7852213951036253,
      "outputModuleId": 6450383724882435,
      "outputId": 1,
      "inputModuleId": 3734508887212317,
      "inputId": 1,
      "color": "#ff5252"
    },
    {
      "id": 844996801811769,
      "outputModuleId": 35699846797895,
      "outputId": 2,
      "inputModuleId": 6330620524990485,
      "inputId": 4,
      "color": "#ff5252"
    },
    {
      "id": 2587276205494868,
      "outputModuleId": 5381696826590384,
      "outputId": 0,
      "inputModuleId": 3171451574323667,
      "inputId": 1,
      "color": "#ff9352"
    },
    {
      "id": 5614392406313414,
      "outputModuleId": 2951388816352700,
      "outputId": 4,
      "inputModuleId": 2277606983357641,
      "inputId": 4,
      "color": "#ff5252"
    },
    {
      "id": 1427482868536767,
      "outputModuleId": 6450383724882435,
      "outputId": 5,
      "inputModuleId": 6330620524990485,
      "inputId": 3,
      "color": "#67ff52"
    }
  ]
}
