{
  "version": "2.1.2",
  "zoom": 1.0,
  "modules": [
    {
      "id": 1184757612963547,
      "plugin": "Valley",
      "model": "Interzone",
      "version": "2.0",
      "params": [
        {
          "value": 0.0,
          "id": 0
        },
        {
          "value": 1.0,
          "id": 1
        },
        {
          "value": 0.0,
          "id": 2
        },
        {
          "value": 0.0,
          "id": 3
        },
        {
          "value": 1.0,
          "id": 4
        },
        {
          "value": 0.0,
          "id": 5
        },
        {
          "value": 0.26100000739097595,
          "id": 6
        },
        {
          "value": 0.26799961924552917,
          "id": 7
        },
        {
          "value": 0.0,
          "id": 8
        },
        {
          "value": 0.0,
          "id": 9
        },
        {
          "value": 0.0,
          "id": 10
        },
        {
          "value": 0.23399992287158966,
          "id": 11
        },
        {
          "value": 1.8360022306442261,
          "id": 12
        },
        {
          "value": 0.0,
          "id": 13
        },
        {
          "value": 1.0,
          "id": 14
        },
        {
          "value": 0.24399974942207336,
          "id": 15
        },
        {
          "value": 0.92999976873397827,
          "id": 16
        },
        {
          "value": 0.48200002312660217,
          "id": 17
        },
        {
          "value": 0.0,
          "id": 18
        },
        {
          "value": 0.0,
          "id": 19
        },
        {
          "value": 8.0599746704101562,
          "id": 20
        },
        {
          "value": 3.6200008392333984,
          "id": 21
        },
        {
          "value": 0.0,
          "id": 22
        },
        {
          "value": 1.0,
          "id": 23
        },
        {
          "value": 0.24999970197677612,
          "id": 24
        },
        {
          "value": 0.058000005781650543,
          "id": 25
        },
        {
          "value": 0.45800071954727173,
          "id": 26
        },
        {
          "value": 0.0,
          "id": 27
        },
        {
          "value": 0.0,
          "id": 28
        },
        {
          "value": 0.46746969223022461,
          "id": 29
        },
        {
          "value": 0.0,
          "id": 30
        },
        {
          "value": 0.0,
          "id": 31
        },
        {
          "value": 0.20722892880439758,
          "id": 32
        },
        {
          "value": 1.0,
          "id": 33
        },
        {
          "value": 0.60399961471557617,
          "id": 34
        },
        {
          "value": 0.24399995803833008,
          "id": 35
        },
        {
          "value": 0.85800004005432129,
          "id": 36
        },
        {
          "value": 0.25000002980232239,
          "id": 37
        },
        {
          "value": 0.0,
          "id": 38
        },
        {
          "value": 0.0,
          "id": 39
        },
        {
          "value": 0.0,
          "id": 40
        },
        {
          "value": 1.0,
          "id": 41
        },
        {
          "value": 0.0,
          "id": 42
        }
      ],
      "data": {
        "panelStyle": 0
      },
      "pos": [
        12,
        1
      ]
    },
    {
      "id": 7479062205976098,
      "plugin": "repelzen",
      "model": "rexmix",
      "version": "2.0",
      "params": [
        {
          "value": 0.0,
          "id": 0
        },
        {
          "value": 0.0,
          "id": 1
        },
        {
          "value": 0.0,
          "id": 2
        },
        {
          "value": 0.0,
          "id": 3
        },
        {
          "value": -11.855396270751953,
          "id": 4
        },
        {
          "value": -10.481927871704102,
          "id": 5
        },
        {
          "value": 0.0,
          "id": 6
        },
        {
          "value": -60.0,
          "id": 7
        },
        {
          "value": -60.0,
          "id": 8
        },
        {
          "value": -60.0,
          "id": 9
        },
        {
          "value": 0.0,
          "id": 10
        },
        {
          "value": 0.0,
          "id": 11
        },
        {
          "value": 0.0,
          "id": 12
        },
        {
          "value": 0.0,
          "id": 13
        },
        {
          "value": 0.0,
          "id": 14
        },
        {
          "value": 0.0,
          "id": 15
        },
        {
          "value": 0.0,
          "id": 16
        },
        {
          "value": 0.0,
          "id": 17
        },
        {
          "value": 0.0,
          "id": 18
        },
        {
          "value": 0.0,
          "id": 19
        },
        {
          "value": 0.0,
          "id": 20
        },
        {
          "value": 0.0,
          "id": 21
        },
        {
          "value": 0.0,
          "id": 22
        },
        {
          "value": 0.0,
          "id": 23
        },
        {
          "value": 0.0,
          "id": 24
        },
        {
          "value": 0.0,
          "id": 25
        },
        {
          "value": 0.0,
          "id": 26
        },
        {
          "value": 0.0,
          "id": 27
        },
        {
          "value": 0.0,
          "id": 28
        },
        {
          "value": 0.0,
          "id": 29
        },
        {
          "value": 0.0,
          "id": 30
        },
        {
          "value": 0.0,
          "id": 31
        },
        {
          "value": 0.0,
          "id": 32
        },
        {
          "value": 0.0,
          "id": 33
        },
        {
          "value": -0.21927711367607117,
          "id": 34
        },
        {
          "value": 0.26265060901641846,
          "id": 35
        },
        {
          "value": 0.0,
          "id": 36
        },
        {
          "value": 0.0,
          "id": 37
        },
        {
          "value": 0.0,
          "id": 38
        },
        {
          "value": 0.0,
          "id": 39
        },
        {
          "value": 0.66747087240219116,
          "id": 40
        },
        {
          "value": 0.31686747074127197,
          "id": 41
        },
        {
          "value": 0.0,
          "id": 42
        },
        {
          "value": 0.0,
          "id": 43
        },
        {
          "value": 0.0,
          "id": 44
        },
        {
          "value": 0.0,
          "id": 45
        },
        {
          "value": 0.0,
          "id": 46
        },
        {
          "value": 0.0,
          "id": 47
        },
        {
          "value": 0.0,
          "id": 48
        },
        {
          "value": 0.0,
          "id": 49
        },
        {
          "value": 0.0,
          "id": 50
        },
        {
          "value": 0.0,
          "id": 51
        }
      ],
      "rightModuleId": 1,
      "pos": [
        47,
        1
      ]
    },
    {
      "id": 5265678395554143,
      "plugin": "ihtsyn",
      "model": "MVerb",
      "version": "2.0",
      "params": [
        {
          "value": 1.0,
          "id": 0
        },
        {
          "value": 0.31204831600189209,
          "id": 1
        },
        {
          "value": 0.69638609886169434,
          "id": 2
        },
        {
          "value": 0.50963789224624634,
          "id": 3
        },
        {
          "value": 0.5,
          "id": 4
        },
        {
          "value": 0.68000000715255737,
          "id": 5
        },
        {
          "value": 0.60000002384185791,
          "id": 6
        },
        {
          "value": 0.80000001192092896,
          "id": 7
        },
        {
          "value": 0.5,
          "id": 8
        },
        {
          "value": 0.0,
          "id": 9
        }
      ],
      "pos": [
        50,
        0
      ]
    },
    {
      "id": 644714212872810,
      "plugin": "Cardinal",
      "model": "TextEditor",
      "version": "2.0",
      "params": [],
      "data": {
        "filepath": "",
        "lang": "None",
        "etext": "                                                   \n        ^ ^        ,_,                             \n       (O,O)      (.,.)                            \n       (   )      (   )                            \n--------\"-\"---dwb--\"-\"---dwb-                      \n\nversatile 4 voice polyphonic synth with a bit\nof reverb\n\nParam1: pulse width modulation\nParam2: filter frequency\nParam3: filter resonance\n\n\n      /^--^\\     /^--^\\     /^--^\\                 \n      \\____/     \\____/     \\____/                 \n     /      \\   /      \\   /      \\                \n    |        | |        | |        |               \n     \\__  __/   \\__  __/   \\__  __/                \n|^|^|^|^\\ \\^|^|^|^/ /^|^|^|^|^\\ \\^|^|^|^|^|^|^|^|^|\n| | | | |\\ \\| | |/ /| | | | | |\\ \\| | | | | | | | |\n#########/ /#####\\ \\###########/ /#################\n| | | | |\\/ | | | \\/| | | | | |\\/ | | | | | | | | |\n|_|_|_|_|_|_|_|_|_|_|_|_|_|_|_|_|_|_|_|_|_|_|_|_|_|\n\n\n\n\n\n\n\n",
        "width": 27
      },
      "pos": [
        2,
        2
      ]
    },
    {
      "id": 1,
      "plugin": "Cardinal",
      "model": "HostAudio2",
      "version": "2.0",
      "params": [
        {
          "value": 1.0,
          "id": 0
        }
      ],
      "leftModuleId": 7479062205976098,
      "data": {
        "dcFilter": true
      },
      "pos": [
        75,
        1
      ]
    },
    {
      "id": 2,
      "plugin": "Cardinal",
      "model": "HostMIDI",
      "version": "2.0",
      "params": [],
      "data": {
        "pwRange": 0.0,
        "smooth": true,
        "channels": 4,
        "polyMode": 0,
        "lastPitch": 8192,
        "lastMod": 0,
        "inputChannel": 0,
        "outputChannel": 0
      },
      "pos": [
        0,
        1
      ]
    },
    {
      "id": 4,
      "plugin": "Cardinal",
      "model": "HostParameters",
      "version": "2.0",
      "params": [],
      "data": {
        "smooth": true
      },
      "pos": [
        32,
        2
      ]
    }
  ],
  "cables": [
    {
      "id": 6433670563492534,
      "outputModuleId": 7479062205976098,
      "outputId": 1,
      "inputModuleId": 1,
      "inputId": 1,
      "color": "#67ff52"
    },
    {
      "id": 7811632878270413,
      "outputModuleId": 7479062205976098,
      "outputId": 0,
      "inputModuleId": 1,
      "inputId": 0,
      "color": "#52ff7d"
    },
    {
      "id": 5639365994348230,
      "outputModuleId": 1184757612963547,
      "outputId": 5,
      "inputModuleId": 7479062205976098,
      "inputId": 4,
      "color": "#6752ff"
    },
    {
      "id": 4697080526212779,
      "outputModuleId": 7479062205976098,
      "outputId": 3,
      "inputModuleId": 5265678395554143,
      "inputId": 1,
      "color": "#527dff"
    },
    {
      "id": 749068877206824,
      "outputModuleId": 7479062205976098,
      "outputId": 2,
      "inputModuleId": 5265678395554143,
      "inputId": 0,
      "color": "#52beff"
    },
    {
      "id": 385489337409134,
      "outputModuleId": 5265678395554143,
      "outputId": 1,
      "inputModuleId": 7479062205976098,
      "inputId": 1,
      "color": "#52ffff"
    },
    {
      "id": 6967686280457428,
      "outputModuleId": 5265678395554143,
      "outputId": 0,
      "inputModuleId": 7479062205976098,
      "inputId": 0,
      "color": "#52ffbe"
    },
    {
      "id": 8997840924253604,
      "outputModuleId": 4,
      "outputId": 0,
      "inputModuleId": 1184757612963547,
      "inputId": 2,
      "color": "#a852ff"
    },
    {
      "id": 2740863142747665,
      "outputModuleId": 4,
      "outputId": 1,
      "inputModuleId": 1184757612963547,
      "inputId": 7,
      "color": "#e952ff"
    },
    {
      "id": 5297103153509182,
      "outputModuleId": 2,
      "outputId": 1,
      "inputModuleId": 1184757612963547,
      "inputId": 3,
      "color": "#ff9352"
    },
    {
      "id": 7340028675801259,
      "outputModuleId": 4,
      "outputId": 2,
      "inputModuleId": 1184757612963547,
      "inputId": 8,
      "color": "#ff5252"
    },
    {
      "id": 5629473447667825,
      "outputModuleId": 2,
      "outputId": 0,
      "inputModuleId": 1184757612963547,
      "inputId": 0,
      "color": "#ff5252"
    }
  ]
}
