{
  "version": "2.0",
  "zoom": 1.0,
  "modules": [
    {
      "id": 5567774278698987,
      "plugin": "Bidoo",
      "model": "LoURdE",
      "version": "2.0",
      "params": [
        {
          "value": -1.4337300062179565,
          "id": 0
        },
        {
          "value": 0.53012055158615112,
          "id": 1
        },
        {
          "value": 0.77108293771743774,
          "id": 2
        },
        {
          "value": -2.8915698528289795,
          "id": 3
        }
      ],
      "pos": [
        29,
        1
      ]
    },
    {
      "id": 8614706367736874,
      "plugin": "DrumKit",
      "model": "ClosedHiHat",
      "version": "2.0",
      "params": [
        {
          "value": 4.0,
          "id": 0
        },
        {
          "value": 7.0,
          "id": 1
        },
        {
          "value": 0.0,
          "id": 2
        },
        {
          "value": 0.0,
          "id": 3
        },
        {
          "value": 0.0,
          "id": 4
        },
        {
          "value": 0.0,
          "id": 5
        },
        {
          "value": 0.0,
          "id": 6
        },
        {
          "value": 0.0,
          "id": 7
        },
        {
          "value": 0.0,
          "id": 8
        },
        {
          "value": 0.0,
          "id": 9
        },
        {
          "value": 0.0,
          "id": 10
        },
        {
          "value": 0.0,
          "id": 11
        },
        {
          "value": 0.0,
          "id": 12
        },
        {
          "value": 0.0,
          "id": 13
        },
        {
          "value": 0.0,
          "id": 14
        },
        {
          "value": 0.0,
          "id": 15
        },
        {
          "value": 1.0,
          "id": 16
        },
        {
          "value": 1.0,
          "id": 17
        },
        {
          "value": 0.0,
          "id": 18
        },
        {
          "value": 0.0,
          "id": 19
        },
        {
          "value": 0.0,
          "id": 20
        },
        {
          "value": 0.0,
          "id": 21
        },
        {
          "value": 0.0,
          "id": 22
        },
        {
          "value": 0.0,
          "id": 23
        },
        {
          "value": 0.0,
          "id": 24
        },
        {
          "value": 0.0,
          "id": 25
        },
        {
          "value": 0.0,
          "id": 26
        },
        {
          "value": 0.0,
          "id": 27
        },
        {
          "value": 0.0,
          "id": 28
        },
        {
          "value": 0.0,
          "id": 29
        },
        {
          "value": 0.0,
          "id": 30
        },
        {
          "value": 0.0,
          "id": 31
        }
      ],
      "pos": [
        32,
        2
      ]
    },
    {
      "id": 8480211942345494,
      "plugin": "DrumKit",
      "model": "BassDrum9",
      "version": "2.0",
      "params": [
        {
          "value": 7.0,
          "id": 0
        },
        {
          "value": 1.0,
          "id": 1
        },
        {
          "value": 0.0,
          "id": 2
        },
        {
          "value": 0.0,
          "id": 3
        },
        {
          "value": 0.0,
          "id": 4
        },
        {
          "value": 0.0,
          "id": 5
        },
        {
          "value": 0.0,
          "id": 6
        },
        {
          "value": 0.0,
          "id": 7
        },
        {
          "value": 0.0,
          "id": 8
        },
        {
          "value": 0.0,
          "id": 9
        },
        {
          "value": 0.0,
          "id": 10
        },
        {
          "value": 0.0,
          "id": 11
        },
        {
          "value": 0.0,
          "id": 12
        },
        {
          "value": 0.0,
          "id": 13
        },
        {
          "value": 0.0,
          "id": 14
        },
        {
          "value": 0.0,
          "id": 15
        },
        {
          "value": 1.0,
          "id": 16
        },
        {
          "value": 1.0,
          "id": 17
        },
        {
          "value": 0.0,
          "id": 18
        },
        {
          "value": 0.0,
          "id": 19
        },
        {
          "value": 0.0,
          "id": 20
        },
        {
          "value": 0.0,
          "id": 21
        },
        {
          "value": 0.0,
          "id": 22
        },
        {
          "value": 0.0,
          "id": 23
        },
        {
          "value": 0.0,
          "id": 24
        },
        {
          "value": 0.0,
          "id": 25
        },
        {
          "value": 0.0,
          "id": 26
        },
        {
          "value": 0.0,
          "id": 27
        },
        {
          "value": 0.0,
          "id": 28
        },
        {
          "value": 0.0,
          "id": 29
        },
        {
          "value": 0.0,
          "id": 30
        },
        {
          "value": 0.0,
          "id": 31
        }
      ],
      "leftModuleId": 6633676242520676,
      "pos": [
        39,
        1
      ]
    },
    {
      "id": 6633676242520676,
      "plugin": "GrandeModular",
      "model": "LFO3",
      "version": "2.0",
      "params": [
        {
          "value": 2.4399986267089844,
          "id": 0
        },
        {
          "value": 1.0,
          "id": 1
        },
        {
          "value": 3.7599990367889404,
          "id": 2
        },
        {
          "value": 0.27466672658920288,
          "id": 3
        },
        {
          "value": 0.0,
          "id": 4
        },
        {
          "value": -0.81866574287414551,
          "id": 5
        }
      ],
      "rightModuleId": 8480211942345494,
      "pos": [
        37,
        1
      ]
    },
    {
      "id": 6142623971266268,
      "plugin": "Bidoo",
      "model": "baR",
      "version": "2.0",
      "params": [
        {
          "value": -30.57600212097168,
          "id": 0
        },
        {
          "value": 17.112028121948242,
          "id": 1
        },
        {
          "value": 1.0,
          "id": 2
        },
        {
          "value": 183.19075012207031,
          "id": 3
        },
        {
          "value": 7.3920121192932129,
          "id": 4
        },
        {
          "value": 4.3200044631958008,
          "id": 5
        },
        {
          "value": 1.0,
          "id": 6
        },
        {
          "value": 0.0,
          "id": 7
        },
        {
          "value": 0.0,
          "id": 8
        }
      ],
      "leftModuleId": 5316500757873963,
      "pos": [
        63,
        0
      ]
    },
    {
      "id": 2335813547920417,
      "plugin": "DrumKit",
      "model": "CR78",
      "version": "2.0",
      "params": [
        {
          "value": 3.0,
          "id": 0
        },
        {
          "value": 2.0,
          "id": 1
        },
        {
          "value": 0.0,
          "id": 2
        },
        {
          "value": 0.0,
          "id": 3
        },
        {
          "value": 0.0,
          "id": 4
        },
        {
          "value": 0.0,
          "id": 5
        },
        {
          "value": 0.0,
          "id": 6
        },
        {
          "value": 0.0,
          "id": 7
        },
        {
          "value": 0.0,
          "id": 8
        },
        {
          "value": 0.0,
          "id": 9
        },
        {
          "value": 0.0,
          "id": 10
        },
        {
          "value": 0.0,
          "id": 11
        },
        {
          "value": 0.0,
          "id": 12
        },
        {
          "value": 0.0,
          "id": 13
        },
        {
          "value": 0.0,
          "id": 14
        },
        {
          "value": 0.0,
          "id": 15
        },
        {
          "value": 0.99507689476013184,
          "id": 16
        },
        {
          "value": 0.56676864624023438,
          "id": 17
        },
        {
          "value": 0.0,
          "id": 18
        },
        {
          "value": 0.0,
          "id": 19
        },
        {
          "value": 0.0,
          "id": 20
        },
        {
          "value": 0.0,
          "id": 21
        },
        {
          "value": 0.0,
          "id": 22
        },
        {
          "value": 0.0,
          "id": 23
        },
        {
          "value": 0.0,
          "id": 24
        },
        {
          "value": 0.0,
          "id": 25
        },
        {
          "value": 0.0,
          "id": 26
        },
        {
          "value": 0.0,
          "id": 27
        },
        {
          "value": 0.0,
          "id": 28
        },
        {
          "value": 0.0,
          "id": 29
        },
        {
          "value": 0.0,
          "id": 30
        },
        {
          "value": 0.0,
          "id": 31
        }
      ],
      "leftModuleId": 7102321685927569,
      "rightModuleId": 324685194587839,
      "pos": [
        65,
        2
      ]
    },
    {
      "id": 5027784904497184,
      "plugin": "Bogaudio",
      "model": "Bogaudio-FlipFlop",
      "version": "2.0",
      "params": [],
      "rightModuleId": 80438023490537,
      "data": {},
      "pos": [
        77,
        2
      ]
    },
    {
      "id": 7102321685927569,
      "plugin": "rackwindows",
      "model": "chorus",
      "version": "2.0",
      "params": [
        {
          "value": 0.81052696704864502,
          "id": 0
        },
        {
          "value": 0.5947381854057312,
          "id": 1
        },
        {
          "value": 0.64999997615814209,
          "id": 2
        },
        {
          "value": 1.0,
          "id": 3
        }
      ],
      "rightModuleId": 2335813547920417,
      "pos": [
        59,
        2
      ]
    },
    {
      "id": 5316500757873963,
      "plugin": "Valley",
      "model": "Plateau",
      "version": "2.0",
      "params": [
        {
          "value": 1.0,
          "id": 0
        },
        {
          "value": 0.49090945720672607,
          "id": 1
        },
        {
          "value": 0.0,
          "id": 2
        },
        {
          "value": 4.8571438789367676,
          "id": 3
        },
        {
          "value": 10.0,
          "id": 4
        },
        {
          "value": 0.47662344574928284,
          "id": 5
        },
        {
          "value": 3.9740290641784668,
          "id": 6
        },
        {
          "value": 0.48216572403907776,
          "id": 7
        },
        {
          "value": 6.4025998115539551,
          "id": 8
        },
        {
          "value": 8.1818161010742188,
          "id": 9
        },
        {
          "value": 0.0,
          "id": 10
        },
        {
          "value": 0.48961043357849121,
          "id": 11
        },
        {
          "value": 0.5,
          "id": 12
        },
        {
          "value": 0.0,
          "id": 13
        },
        {
          "value": 0.0,
          "id": 14
        },
        {
          "value": 0.0,
          "id": 15
        },
        {
          "value": 0.0,
          "id": 16
        },
        {
          "value": 0.0,
          "id": 17
        },
        {
          "value": 0.0,
          "id": 18
        },
        {
          "value": 0.0,
          "id": 19
        },
        {
          "value": 0.0,
          "id": 20
        },
        {
          "value": 0.0,
          "id": 21
        },
        {
          "value": 0.0,
          "id": 22
        },
        {
          "value": 0.0,
          "id": 23
        },
        {
          "value": 0.0,
          "id": 24
        },
        {
          "value": 0.0,
          "id": 25
        },
        {
          "value": 0.0,
          "id": 26
        },
        {
          "value": 0.0,
          "id": 27
        },
        {
          "value": 0.0,
          "id": 28
        },
        {
          "value": 0.0,
          "id": 29
        },
        {
          "value": 1.0,
          "id": 30
        }
      ],
      "rightModuleId": 6142623971266268,
      "data": {
        "frozen": false,
        "freezeToggle": false,
        "panelStyle": 0,
        "tuned": 0,
        "diffuseInput": 1,
        "preDelayCVSens": 0,
        "inputSensitivity": 0,
        "outputSaturation": 0,
        "dspMode": 875442477
      },
      "pos": [
        51,
        0
      ]
    },
    {
      "id": 7632890583818000,
      "plugin": "repelzen",
      "model": "rexmix",
      "version": "2.0",
      "params": [
        {
          "value": 0.0,
          "id": 0
        },
        {
          "value": 0.0,
          "id": 1
        },
        {
          "value": 0.0,
          "id": 2
        },
        {
          "value": 0.0,
          "id": 3
        },
        {
          "value": -7.0843234062194824,
          "id": 4
        },
        {
          "value": -11.92771053314209,
          "id": 5
        },
        {
          "value": -5.3494110107421875,
          "id": 6
        },
        {
          "value": -5.710843563079834,
          "id": 7
        },
        {
          "value": -60.0,
          "id": 8
        },
        {
          "value": -60.0,
          "id": 9
        },
        {
          "value": 0.0,
          "id": 10
        },
        {
          "value": 0.0,
          "id": 11
        },
        {
          "value": 0.0,
          "id": 12
        },
        {
          "value": 0.0,
          "id": 13
        },
        {
          "value": 0.0,
          "id": 14
        },
        {
          "value": 0.0,
          "id": 15
        },
        {
          "value": 0.0,
          "id": 16
        },
        {
          "value": 0.0,
          "id": 17
        },
        {
          "value": 0.0,
          "id": 18
        },
        {
          "value": 0.0,
          "id": 19
        },
        {
          "value": 0.0,
          "id": 20
        },
        {
          "value": 0.0,
          "id": 21
        },
        {
          "value": 0.0,
          "id": 22
        },
        {
          "value": 0.0,
          "id": 23
        },
        {
          "value": 3.8855412006378174,
          "id": 24
        },
        {
          "value": 2.861445426940918,
          "id": 25
        },
        {
          "value": 0.0,
          "id": 26
        },
        {
          "value": 0.0,
          "id": 27
        },
        {
          "value": 0.0,
          "id": 28
        },
        {
          "value": 0.0,
          "id": 29
        },
        {
          "value": -0.57831346988677979,
          "id": 30
        },
        {
          "value": -2.0240950584411621,
          "id": 31
        },
        {
          "value": 0.0,
          "id": 32
        },
        {
          "value": 0.0,
          "id": 33
        },
        {
          "value": 0.0,
          "id": 34
        },
        {
          "value": -0.16867464780807495,
          "id": 35
        },
        {
          "value": -0.27710896730422974,
          "id": 36
        },
        {
          "value": 1.0,
          "id": 37
        },
        {
          "value": 0.0,
          "id": 38
        },
        {
          "value": 0.0,
          "id": 39
        },
        {
          "value": 0.26626628637313843,
          "id": 40
        },
        {
          "value": 0.24337342381477356,
          "id": 41
        },
        {
          "value": 0.40843361616134644,
          "id": 42
        },
        {
          "value": 0.38072279095649719,
          "id": 43
        },
        {
          "value": 0.0,
          "id": 44
        },
        {
          "value": 0.0,
          "id": 45
        },
        {
          "value": 0.50241082906723022,
          "id": 46
        },
        {
          "value": 0.27228903770446777,
          "id": 47
        },
        {
          "value": 0.19638548791408539,
          "id": 48
        },
        {
          "value": 0.0,
          "id": 49
        },
        {
          "value": 0.0,
          "id": 50
        },
        {
          "value": 0.0,
          "id": 51
        }
      ],
      "leftModuleId": 624810863841921,
      "rightModuleId": 6791627804957930,
      "pos": [
        57,
        1
      ]
    },
    {
      "id": 80438023490537,
      "plugin": "DrumKit",
      "model": "Baronial",
      "version": "2.0",
      "params": [
        {
          "value": 1.0443365573883057,
          "id": 0
        },
        {
          "value": 3.923832893371582,
          "id": 1
        },
        {
          "value": 2.5999584197998047,
          "id": 2
        },
        {
          "value": 2.4494228363037109,
          "id": 3
        },
        {
          "value": 1.3686022758483887,
          "id": 4
        },
        {
          "value": 0.0,
          "id": 5
        },
        {
          "value": 1.0,
          "id": 6
        },
        {
          "value": 1.0,
          "id": 7
        },
        {
          "value": 0.0,
          "id": 8
        }
      ],
      "leftModuleId": 5027784904497184,
      "pos": [
        80,
        2
      ]
    },
    {
      "id": 324685194587839,
      "plugin": "Bogaudio",
      "model": "Bogaudio-VCA",
      "version": "2.0",
      "params": [
        {
          "value": 0.80000001192092896,
          "id": 0
        },
        {
          "value": 0.96385693550109863,
          "id": 1
        },
        {
          "value": 0.0,
          "id": 2
        }
      ],
      "leftModuleId": 2335813547920417,
      "data": {},
      "pos": [
        71,
        2
      ]
    },
    {
      "id": 6592360690732486,
      "plugin": "Cardinal",
      "model": "TextEditor",
      "version": "2.0",
      "params": [],
      "data": {
        "filepath": "",
        "lang": "None",
        "etext": "                                                   \n        ^ ^        ,_,                             \n       (O,O)      (.,.)                            \n       (   )      (   )                            \n--------\"-\"---dwb--\"-\"---dwb-                      \n\n\nGenerative drum pattern/sample-player\ncontrolled by Host Time and some lfo's\n\nParam1: kick volume\nParam2: hi-hat volume\nParam3: percussion volume\nParam3: percussion sample\n\n\n      /^--^\\     /^--^\\     /^--^\\                 \n      \\____/     \\____/     \\____/                 \n     /      \\   /      \\   /      \\                \n    |        | |        | |        |               \n     \\__  __/   \\__  __/   \\__  __/                \n|^|^|^|^\\ \\^|^|^|^/ /^|^|^|^|^\\ \\^|^|^|^|^|^|^|^|^|\n| | | | |\\ \\| | |/ /| | | | | |\\ \\| | | | | | | | |\n#########/ /#####\\ \\###########/ /#################\n| | | | |\\/ | | | \\/| | | | | |\\/ | | | | | | | | |\n|_|_|_|_|_|_|_|_|_|_|_|_|_|_|_|_|_|_|_|_|_|_|_|_|_|\n",
        "width": 26
      },
      "pos": [
        0,
        1
      ]
    },
    {
      "id": 5,
      "plugin": "Cardinal",
      "model": "HostTime",
      "version": "2.0",
      "params": [],
      "pos": [
        48,
        2
      ]
    },
    {
      "id": 6791627804957930,
      "plugin": "Cardinal",
      "model": "HostAudio2",
      "version": "2.0",
      "params": [
        {
          "value": 1.0,
          "id": 0
        }
      ],
      "leftModuleId": 7632890583818000,
      "data": {
        "dcFilter": true
      },
      "pos": [
        85,
        1
      ]
    },
    {
      "id": 624810863841921,
      "plugin": "Cardinal",
      "model": "HostParameters",
      "version": "2.0",
      "params": [],
      "rightModuleId": 7632890583818000,
      "pos": [
        48,
        1
      ]
    }
  ],
  "cables": [
    {
      "id": 3749559832902832,
      "outputModuleId": 5,
      "outputId": 3,
      "inputModuleId": 5567774278698987,
      "inputId": 0,
      "color": "#67c12d"
    },
    {
      "id": 5942197616932833,
      "outputModuleId": 5,
      "outputId": 4,
      "inputModuleId": 5567774278698987,
      "inputId": 2,
      "color": "#f9b130"
    },
    {
      "id": 1037597211961456,
      "outputModuleId": 5,
      "outputId": 4,
      "inputModuleId": 8614706367736874,
      "inputId": 16,
      "color": "#8c1889"
    },
    {
      "id": 6559321662745122,
      "outputModuleId": 5567774278698987,
      "outputId": 0,
      "inputModuleId": 8480211942345494,
      "inputId": 17,
      "color": "#52beff"
    },
    {
      "id": 2956479001656740,
      "outputModuleId": 6633676242520676,
      "outputId": 0,
      "inputModuleId": 5567774278698987,
      "inputId": 5,
      "color": "#6752ff"
    },
    {
      "id": 2102810444058479,
      "outputModuleId": 6633676242520676,
      "outputId": 1,
      "inputModuleId": 6633676242520676,
      "inputId": 0,
      "color": "#a852ff"
    },
    {
      "id": 994229161335840,
      "outputModuleId": 6633676242520676,
      "outputId": 2,
      "inputModuleId": 8614706367736874,
      "inputId": 0,
      "color": "#ff5293"
    },
    {
      "id": 373601376106216,
      "outputModuleId": 5,
      "outputId": 3,
      "inputModuleId": 5027784904497184,
      "inputId": 0,
      "color": "#fc2d5a"
    },
    {
      "id": 2616213830236325,
      "outputModuleId": 2335813547920417,
      "outputId": 1,
      "inputModuleId": 7102321685927569,
      "inputId": 2,
      "color": "#e8ff52"
    },
    {
      "id": 1945600809184248,
      "outputModuleId": 2335813547920417,
      "outputId": 1,
      "inputModuleId": 7102321685927569,
      "inputId": 3,
      "color": "#52ff7d"
    },
    {
      "id": 622750057992588,
      "outputModuleId": 7632890583818000,
      "outputId": 0,
      "inputModuleId": 6791627804957930,
      "inputId": 0,
      "color": "#ff52d4"
    },
    {
      "id": 8947911978966855,
      "outputModuleId": 7632890583818000,
      "outputId": 1,
      "inputModuleId": 6791627804957930,
      "inputId": 1,
      "color": "#e952ff"
    },
    {
      "id": 4814420688307590,
      "outputModuleId": 624810863841921,
      "outputId": 0,
      "inputModuleId": 7632890583818000,
      "inputId": 10,
      "color": "#ff5293"
    },
    {
      "id": 4514539028034172,
      "outputModuleId": 624810863841921,
      "outputId": 1,
      "inputModuleId": 7632890583818000,
      "inputId": 11,
      "color": "#ff5252"
    },
    {
      "id": 8931905833262733,
      "outputModuleId": 624810863841921,
      "outputId": 2,
      "inputModuleId": 7632890583818000,
      "inputId": 12,
      "color": "#ff9352"
    },
    {
      "id": 2527404255205931,
      "outputModuleId": 5316500757873963,
      "outputId": 1,
      "inputModuleId": 7632890583818000,
      "inputId": 1,
      "color": "#ff5293"
    },
    {
      "id": 6717632160623331,
      "outputModuleId": 5316500757873963,
      "outputId": 0,
      "inputModuleId": 7632890583818000,
      "inputId": 0,
      "color": "#ff52d4"
    },
    {
      "id": 7338124562825619,
      "outputModuleId": 8614706367736874,
      "outputId": 0,
      "inputModuleId": 7632890583818000,
      "inputId": 5,
      "color": "#ff9352"
    },
    {
      "id": 2502588557339856,
      "outputModuleId": 7102321685927569,
      "outputId": 0,
      "inputModuleId": 7632890583818000,
      "inputId": 6,
      "color": "#a852ff"
    },
    {
      "id": 909435954192876,
      "outputModuleId": 8480211942345494,
      "outputId": 1,
      "inputModuleId": 7632890583818000,
      "inputId": 4,
      "color": "#527dff"
    },
    {
      "id": 4683040781075301,
      "outputModuleId": 7632890583818000,
      "outputId": 5,
      "inputModuleId": 6142623971266268,
      "inputId": 1,
      "color": "#f9b130"
    },
    {
      "id": 8833633514906751,
      "outputModuleId": 7632890583818000,
      "outputId": 4,
      "inputModuleId": 6142623971266268,
      "inputId": 0,
      "color": "#fc2d5a"
    },
    {
      "id": 4117604456582742,
      "outputModuleId": 6142623971266268,
      "outputId": 1,
      "inputModuleId": 7632890583818000,
      "inputId": 3,
      "color": "#ff9352"
    },
    {
      "id": 7644282616727091,
      "outputModuleId": 6142623971266268,
      "outputId": 0,
      "inputModuleId": 7632890583818000,
      "inputId": 2,
      "color": "#ffd452"
    },
    {
      "id": 3839996458627276,
      "outputModuleId": 7632890583818000,
      "outputId": 3,
      "inputModuleId": 5316500757873963,
      "inputId": 1,
      "color": "#e8ff52"
    },
    {
      "id": 6381722321047357,
      "outputModuleId": 7632890583818000,
      "outputId": 2,
      "inputModuleId": 5316500757873963,
      "inputId": 0,
      "color": "#a8ff52"
    },
    {
      "id": 6906635014876686,
      "outputModuleId": 7102321685927569,
      "outputId": 1,
      "inputModuleId": 7632890583818000,
      "inputId": 7,
      "color": "#67ff52"
    },
    {
      "id": 7949213181171582,
      "outputModuleId": 624810863841921,
      "outputId": 2,
      "inputModuleId": 7632890583818000,
      "inputId": 13,
      "color": "#52ff7d"
    },
    {
      "id": 3717067425808798,
      "outputModuleId": 5027784904497184,
      "outputId": 1,
      "inputModuleId": 80438023490537,
      "inputId": 0,
      "color": "#52ffbe"
    },
    {
      "id": 6096495840858941,
      "outputModuleId": 5,
      "outputId": 4,
      "inputModuleId": 2335813547920417,
      "inputId": 17,
      "color": "#ffd452"
    },
    {
      "id": 6511802318849519,
      "outputModuleId": 5,
      "outputId": 4,
      "inputModuleId": 5027784904497184,
      "inputId": 2,
      "color": "#52ff7d"
    },
    {
      "id": 5374199475835119,
      "outputModuleId": 80438023490537,
      "outputId": 0,
      "inputModuleId": 2335813547920417,
      "inputId": 33,
      "color": "#52ffff"
    },
    {
      "id": 6411103128521649,
      "outputModuleId": 5027784904497184,
      "outputId": 3,
      "inputModuleId": 324685194587839,
      "inputId": 3,
      "color": "#52ffbe"
    },
    {
      "id": 4046541135221927,
      "outputModuleId": 324685194587839,
      "outputId": 1,
      "inputModuleId": 2335813547920417,
      "inputId": 1,
      "color": "#52ffff"
    },
    {
      "id": 5130610130747980,
      "outputModuleId": 624810863841921,
      "outputId": 3,
      "inputModuleId": 324685194587839,
      "inputId": 2,
      "color": "#52beff"
    },
    {
      "id": 7547544574339711,
      "outputModuleId": 5567774278698987,
      "outputId": 0,
      "inputModuleId": 6633676242520676,
      "inputId": 2,
      "color": "#ff5252"
    }
  ]
}
