{
  "version": "2.4.1",
  "zoom": 0.42044827342033386,
  "gridOffset": [
    -62.799350738525391,
    -1.9729030132293701
  ],
  "modules": [
    {
      "id": 2159047972516498,
      "plugin": "ImpromptuModular",
      "model": "Clocked-Clkd",
      "version": "2.0",
      "params": [
        {
          "value": 0.0,
          "id": 0
        },
        {
          "value": 0.0,
          "id": 1
        },
        {
          "value": 2.0,
          "id": 2
        },
        {
          "value": 151.0,
          "id": 3
        },
        {
          "value": 0.0,
          "id": 4
        },
        {
          "value": 0.0,
          "id": 5
        },
        {
          "value": 0.0,
          "id": 6
        },
        {
          "value": 0.0,
          "id": 7
        },
        {
          "value": 0.0,
          "id": 8
        },
        {
          "value": 0.0,
          "id": 9
        }
      ],
      "leftModuleId": 4187213689217722,
      "rightModuleId": 3830846223236507,
      "data": {
        "panelTheme": 1,
        "panelContrast": 220.0,
        "running": true,
        "bpmDetectionMode": false,
        "resetOnStartStop": 0,
        "ppqn": 4,
        "resetClockOutputsHigh": true,
        "momentaryRunInput": true,
        "forceCvOnBpmOut": false,
        "displayIndex": 0,
        "trigOuts": [
          false,
          false,
          false,
          false
        ],
        "clockMaster": -1
      },
      "pos": [
        -52,
        0
      ]
    },
    {
      "id": 4187213689217722,
      "plugin": "Bogaudio",
      "model": "Bogaudio-Mult",
      "version": "2.0",
      "params": [],
      "rightModuleId": 2159047972516498,
      "data": {},
      "pos": [
        -55,
        0
      ]
    },
    {
      "id": 3830846223236507,
      "plugin": "Bogaudio",
      "model": "Bogaudio-Mult",
      "version": "2.0",
      "params": [],
      "leftModuleId": 2159047972516498,
      "rightModuleId": 5622494419825952,
      "data": {},
      "pos": [
        -42,
        0
      ]
    },
    {
      "id": 5588781388402853,
      "plugin": "Bogaudio",
      "model": "Bogaudio-ADSR",
      "version": "2.0",
      "params": [
        {
          "value": 0.10286685824394226,
          "id": 0
        },
        {
          "value": 0.31622999906539917,
          "id": 1
        },
        {
          "value": 1.0,
          "id": 2
        },
        {
          "value": 0.31622999906539917,
          "id": 3
        },
        {
          "value": 0.0,
          "id": 4
        }
      ],
      "leftModuleId": 6485270196416882,
      "rightModuleId": 1170574363078075,
      "data": {
        "invert": 1.0
      },
      "pos": [
        46,
        0
      ]
    },
    {
      "id": 7382001000905062,
      "plugin": "Bogaudio",
      "model": "Bogaudio-ADSR",
      "version": "2.0",
      "params": [
        {
          "value": 0.14142100512981415,
          "id": 0
        },
        {
          "value": 0.31622999906539917,
          "id": 1
        },
        {
          "value": 1.0,
          "id": 2
        },
        {
          "value": 0.31622999906539917,
          "id": 3
        },
        {
          "value": 0.0,
          "id": 4
        }
      ],
      "leftModuleId": 1305145125414192,
      "rightModuleId": 438885941898769,
      "data": {
        "invert": 1.0
      },
      "pos": [
        18,
        0
      ]
    },
    {
      "id": 2278749660885397,
      "plugin": "Bogaudio",
      "model": "Bogaudio-ADSR",
      "version": "2.0",
      "params": [
        {
          "value": 0.14142100512981415,
          "id": 0
        },
        {
          "value": 0.31622999906539917,
          "id": 1
        },
        {
          "value": 1.0,
          "id": 2
        },
        {
          "value": 0.31622999906539917,
          "id": 3
        },
        {
          "value": 0.0,
          "id": 4
        }
      ],
      "leftModuleId": 998069146105942,
      "rightModuleId": 6529439116344665,
      "data": {
        "invert": 1.0
      },
      "pos": [
        32,
        0
      ]
    },
    {
      "id": 413123163252880,
      "plugin": "Bogaudio",
      "model": "Bogaudio-ADSR",
      "version": "2.0",
      "params": [
        {
          "value": 0.17274630069732666,
          "id": 0
        },
        {
          "value": 0.31622999906539917,
          "id": 1
        },
        {
          "value": 1.0,
          "id": 2
        },
        {
          "value": 0.31622999906539917,
          "id": 3
        },
        {
          "value": 0.0,
          "id": 4
        }
      ],
      "leftModuleId": 8554745767661414,
      "rightModuleId": 3745062635142253,
      "data": {
        "invert": 1.0
      },
      "pos": [
        1,
        0
      ]
    },
    {
      "id": 6766853921521776,
      "plugin": "AriaSalvatrice",
      "model": "Quack",
      "version": "2.0",
      "params": [
        {
          "value": 0.0,
          "id": 0
        },
        {
          "value": 1.0,
          "id": 1
        },
        {
          "value": 0.0,
          "id": 2
        },
        {
          "value": 0.0,
          "id": 3
        },
        {
          "value": 1.0,
          "id": 4
        },
        {
          "value": 0.0,
          "id": 5
        },
        {
          "value": 1.0,
          "id": 6
        },
        {
          "value": 0.0,
          "id": 7
        },
        {
          "value": 1.0,
          "id": 8
        },
        {
          "value": 0.0,
          "id": 9
        },
        {
          "value": 0.0,
          "id": 10
        },
        {
          "value": 1.0,
          "id": 11
        },
        {
          "value": 100.0,
          "id": 12
        },
        {
          "value": 100.0,
          "id": 13
        },
        {
          "value": 100.0,
          "id": 14
        },
        {
          "value": 100.0,
          "id": 15
        },
        {
          "value": 0.0,
          "id": 16
        },
        {
          "value": 0.0,
          "id": 17
        },
        {
          "value": 0.0,
          "id": 18
        },
        {
          "value": 0.0,
          "id": 19
        },
        {
          "value": 0.0,
          "id": 20
        },
        {
          "value": 0.0,
          "id": 21
        },
        {
          "value": 0.0,
          "id": 22
        },
        {
          "value": 0.0,
          "id": 23
        },
        {
          "value": 0.0,
          "id": 24
        },
        {
          "value": 0.0,
          "id": 25
        },
        {
          "value": 0.0,
          "id": 26
        },
        {
          "value": 0.0,
          "id": 27
        },
        {
          "value": 0.0,
          "id": 28
        },
        {
          "value": 0.0,
          "id": 29
        },
        {
          "value": 0.0,
          "id": 30
        },
        {
          "value": 0.0,
          "id": 31
        },
        {
          "value": 1.0,
          "id": 32
        },
        {
          "value": 0.0,
          "id": 33
        },
        {
          "value": 0.0,
          "id": 34
        },
        {
          "value": 0.0,
          "id": 35
        },
        {
          "value": 1.0,
          "id": 36
        },
        {
          "value": 0.0,
          "id": 37
        },
        {
          "value": 0.0,
          "id": 38
        },
        {
          "value": 0.0,
          "id": 39
        },
        {
          "value": 0.0,
          "id": 40
        },
        {
          "value": 0.0,
          "id": 41
        },
        {
          "value": 0.0,
          "id": 42
        },
        {
          "value": 0.0,
          "id": 43
        },
        {
          "value": 0.0,
          "id": 44
        },
        {
          "value": 0.0,
          "id": 45
        },
        {
          "value": 0.0,
          "id": 46
        },
        {
          "value": 0.0,
          "id": 47
        },
        {
          "value": 0.0,
          "id": 48
        },
        {
          "value": 0.0,
          "id": 49
        },
        {
          "value": 0.0,
          "id": 50
        },
        {
          "value": 0.0,
          "id": 51
        },
        {
          "value": 4.0,
          "id": 52
        },
        {
          "value": 5.0,
          "id": 53
        },
        {
          "value": 0.0,
          "id": 54
        }
      ],
      "rightModuleId": 4757927610032130,
      "data": {
        "sceneTrigSelection": false,
        "scene": 0,
        "scenes": [
          [
            false,
            true,
            false,
            false,
            true,
            false,
            true,
            false,
            true,
            false,
            false,
            true
          ],
          [
            false,
            false,
            false,
            false,
            false,
            false,
            false,
            false,
            false,
            false,
            false,
            false
          ],
          [
            false,
            false,
            false,
            false,
            false,
            false,
            false,
            false,
            false,
            false,
            false,
            false
          ],
          [
            false,
            false,
            false,
            false,
            false,
            false,
            false,
            false,
            false,
            false,
            false,
            false
          ],
          [
            false,
            false,
            false,
            false,
            false,
            false,
            false,
            false,
            false,
            false,
            false,
            false
          ],
          [
            false,
            false,
            false,
            false,
            false,
            false,
            false,
            false,
            false,
            false,
            false,
            false
          ],
          [
            false,
            false,
            false,
            false,
            false,
            false,
            false,
            false,
            false,
            false,
            false,
            false
          ],
          [
            false,
            false,
            false,
            false,
            false,
            false,
            false,
            false,
            false,
            false,
            false,
            false
          ],
          [
            false,
            false,
            false,
            false,
            false,
            false,
            false,
            false,
            false,
            false,
            false,
            false
          ],
          [
            false,
            false,
            false,
            false,
            false,
            false,
            false,
            false,
            false,
            false,
            false,
            false
          ],
          [
            false,
            false,
            false,
            false,
            false,
            false,
            false,
            false,
            false,
            false,
            false,
            false
          ],
          [
            false,
            false,
            false,
            false,
            false,
            false,
            false,
            false,
            false,
            false,
            false,
            false
          ],
          [
            false,
            false,
            false,
            false,
            false,
            false,
            false,
            false,
            false,
            false,
            false,
            false
          ],
          [
            false,
            false,
            false,
            false,
            false,
            false,
            false,
            false,
            false,
            false,
            false,
            false
          ],
          [
            false,
            false,
            false,
            false,
            false,
            false,
            false,
            false,
            false,
            false,
            false,
            false
          ],
          [
            false,
            false,
            false,
            false,
            false,
            false,
            false,
            false,
            false,
            false,
            false,
            false
          ]
        ]
      },
      "pos": [
        -50,
        -1
      ]
    },
    {
      "id": 4757927610032130,
      "plugin": "Bogaudio",
      "model": "Bogaudio-Mult",
      "version": "2.0",
      "params": [],
      "leftModuleId": 6766853921521776,
      "rightModuleId": 4881975851057372,
      "data": {},
      "pos": [
        -43,
        -1
      ]
    },
    {
      "id": 5622494419825952,
      "plugin": "AriaSalvatrice",
      "model": "Darius",
      "version": "2.0",
      "params": [
        {
          "value": 5.7326288223266602,
          "id": 0
        },
        {
          "value": 1.2162555456161499,
          "id": 1
        },
        {
          "value": 8.3106145858764648,
          "id": 2
        },
        {
          "value": 2.7549829483032227,
          "id": 3
        },
        {
          "value": 1.6300861835479736,
          "id": 4
        },
        {
          "value": 0.91675013303756714,
          "id": 5
        },
        {
          "value": 3.9831564426422119,
          "id": 6
        },
        {
          "value": 8.9421091079711914,
          "id": 7
        },
        {
          "value": 8.2793073654174805,
          "id": 8
        },
        {
          "value": 5.8733129501342773,
          "id": 9
        },
        {
          "value": 1.7882294654846191,
          "id": 10
        },
        {
          "value": 2.6813724040985107,
          "id": 11
        },
        {
          "value": 4.2679920196533203,
          "id": 12
        },
        {
          "value": 6.4848566055297852,
          "id": 13
        },
        {
          "value": 5.3372011184692383,
          "id": 14
        },
        {
          "value": 5.7527809143066406,
          "id": 15
        },
        {
          "value": 1.8975667953491211,
          "id": 16
        },
        {
          "value": 5.119206428527832,
          "id": 17
        },
        {
          "value": 7.4633817672729492,
          "id": 18
        },
        {
          "value": 7.3897285461425781,
          "id": 19
        },
        {
          "value": 0.11451608687639236,
          "id": 20
        },
        {
          "value": 6.0726122856140137,
          "id": 21
        },
        {
          "value": 1.6985502243041992,
          "id": 22
        },
        {
          "value": 7.9478974342346191,
          "id": 23
        },
        {
          "value": 9.0303964614868164,
          "id": 24
        },
        {
          "value": 6.8020820617675781,
          "id": 25
        },
        {
          "value": 4.086698055267334,
          "id": 26
        },
        {
          "value": 8.1851844787597656,
          "id": 27
        },
        {
          "value": 6.3494329452514648,
          "id": 28
        },
        {
          "value": 4.6584978103637695,
          "id": 29
        },
        {
          "value": 2.6089012622833252,
          "id": 30
        },
        {
          "value": 5.6259002685546875,
          "id": 31
        },
        {
          "value": 6.4349942207336426,
          "id": 32
        },
        {
          "value": 6.5766806602478027,
          "id": 33
        },
        {
          "value": 2.8860161304473877,
          "id": 34
        },
        {
          "value": 9.8916788101196289,
          "id": 35
        },
        {
          "value": 0.5,
          "id": 36
        },
        {
          "value": 0.5,
          "id": 37
        },
        {
          "value": 0.5,
          "id": 38
        },
        {
          "value": 0.5,
          "id": 39
        },
        {
          "value": 0.5,
          "id": 40
        },
        {
          "value": 0.5,
          "id": 41
        },
        {
          "value": 0.5,
          "id": 42
        },
        {
          "value": 0.5,
          "id": 43
        },
        {
          "value": 0.5,
          "id": 44
        },
        {
          "value": 0.5,
          "id": 45
        },
        {
          "value": 0.5,
          "id": 46
        },
        {
          "value": 0.5,
          "id": 47
        },
        {
          "value": 0.5,
          "id": 48
        },
        {
          "value": 0.5,
          "id": 49
        },
        {
          "value": 0.5,
          "id": 50
        },
        {
          "value": 0.5,
          "id": 51
        },
        {
          "value": 0.5,
          "id": 52
        },
        {
          "value": 0.5,
          "id": 53
        },
        {
          "value": 0.5,
          "id": 54
        },
        {
          "value": 0.5,
          "id": 55
        },
        {
          "value": 0.5,
          "id": 56
        },
        {
          "value": 0.5,
          "id": 57
        },
        {
          "value": 0.5,
          "id": 58
        },
        {
          "value": 0.5,
          "id": 59
        },
        {
          "value": 0.5,
          "id": 60
        },
        {
          "value": 0.5,
          "id": 61
        },
        {
          "value": 0.5,
          "id": 62
        },
        {
          "value": 0.5,
          "id": 63
        },
        {
          "value": 0.5,
          "id": 64
        },
        {
          "value": 0.5,
          "id": 65
        },
        {
          "value": 0.5,
          "id": 66
        },
        {
          "value": 0.5,
          "id": 67
        },
        {
          "value": 0.5,
          "id": 68
        },
        {
          "value": 0.5,
          "id": 69
        },
        {
          "value": 0.5,
          "id": 70
        },
        {
          "value": 0.5,
          "id": 71
        },
        {
          "value": 0.0,
          "id": 72
        },
        {
          "value": 1.0,
          "id": 73
        },
        {
          "value": 0.0,
          "id": 74
        },
        {
          "value": 8.0,
          "id": 75
        },
        {
          "value": 0.0,
          "id": 76
        },
        {
          "value": 0.0,
          "id": 77
        },
        {
          "value": 0.0,
          "id": 78
        },
        {
          "value": 0.0,
          "id": 79
        },
        {
          "value": 1.0,
          "id": 80
        },
        {
          "value": 3.0,
          "id": 81
        },
        {
          "value": 5.0,
          "id": 82
        },
        {
          "value": 0.0,
          "id": 83
        },
        {
          "value": 1.0,
          "id": 84
        },
        {
          "value": 0.0,
          "id": 85
        },
        {
          "value": 2.0,
          "id": 86
        }
      ],
      "leftModuleId": 3830846223236507,
      "rightModuleId": 8554745767661414,
      "data": {
        "step": 5,
        "node": 16,
        "lastNode": 16,
        "lastGate": 16,
        "pathTraveled": [
          0,
          1,
          3,
          7,
          11,
          16,
          -1,
          -1
        ]
      },
      "pos": [
        -39,
        0
      ]
    },
    {
      "id": 8554745767661414,
      "plugin": "21kHz",
      "model": "kHzPalmLoop",
      "version": "2.0",
      "params": [
        {
          "value": 9.0,
          "id": 0
        },
        {
          "value": 0.0,
          "id": 1
        },
        {
          "value": 0.0,
          "id": 2
        },
        {
          "value": 0.0,
          "id": 3
        },
        {
          "value": 0.0,
          "id": 4
        }
      ],
      "leftModuleId": 5622494419825952,
      "rightModuleId": 413123163252880,
      "pos": [
        -7,
        0
      ]
    },
    {
      "id": 3745062635142253,
      "plugin": "Bogaudio",
      "model": "Bogaudio-Mix1",
      "version": "2.0",
      "params": [
        {
          "value": 0.88509106636047363,
          "id": 0
        },
        {
          "value": 0.0,
          "id": 1
        }
      ],
      "leftModuleId": 413123163252880,
      "rightModuleId": 6814437816954201,
      "data": {
        "linear_cv": false
      },
      "pos": [
        4,
        0
      ]
    },
    {
      "id": 4881975851057372,
      "plugin": "AriaSalvatrice",
      "model": "Darius",
      "version": "2.0",
      "params": [
        {
          "value": 5.7326288223266602,
          "id": 0
        },
        {
          "value": 1.2162555456161499,
          "id": 1
        },
        {
          "value": 8.3106145858764648,
          "id": 2
        },
        {
          "value": 2.7549829483032227,
          "id": 3
        },
        {
          "value": 1.6300861835479736,
          "id": 4
        },
        {
          "value": 0.91675013303756714,
          "id": 5
        },
        {
          "value": 3.9831564426422119,
          "id": 6
        },
        {
          "value": 8.9421091079711914,
          "id": 7
        },
        {
          "value": 8.2793073654174805,
          "id": 8
        },
        {
          "value": 5.8733129501342773,
          "id": 9
        },
        {
          "value": 1.7882294654846191,
          "id": 10
        },
        {
          "value": 2.6813724040985107,
          "id": 11
        },
        {
          "value": 4.2679920196533203,
          "id": 12
        },
        {
          "value": 6.4848566055297852,
          "id": 13
        },
        {
          "value": 5.3372011184692383,
          "id": 14
        },
        {
          "value": 5.7527809143066406,
          "id": 15
        },
        {
          "value": 1.8975667953491211,
          "id": 16
        },
        {
          "value": 5.119206428527832,
          "id": 17
        },
        {
          "value": 7.4633817672729492,
          "id": 18
        },
        {
          "value": 7.3897285461425781,
          "id": 19
        },
        {
          "value": 0.11451608687639236,
          "id": 20
        },
        {
          "value": 6.0726122856140137,
          "id": 21
        },
        {
          "value": 1.6985502243041992,
          "id": 22
        },
        {
          "value": 7.9478974342346191,
          "id": 23
        },
        {
          "value": 9.0303964614868164,
          "id": 24
        },
        {
          "value": 6.8020820617675781,
          "id": 25
        },
        {
          "value": 4.086698055267334,
          "id": 26
        },
        {
          "value": 8.1851844787597656,
          "id": 27
        },
        {
          "value": 6.3494329452514648,
          "id": 28
        },
        {
          "value": 4.6584978103637695,
          "id": 29
        },
        {
          "value": 2.6089012622833252,
          "id": 30
        },
        {
          "value": 5.6259002685546875,
          "id": 31
        },
        {
          "value": 6.4349942207336426,
          "id": 32
        },
        {
          "value": 6.5766806602478027,
          "id": 33
        },
        {
          "value": 2.8860161304473877,
          "id": 34
        },
        {
          "value": 9.8916788101196289,
          "id": 35
        },
        {
          "value": 0.5,
          "id": 36
        },
        {
          "value": 0.5,
          "id": 37
        },
        {
          "value": 0.5,
          "id": 38
        },
        {
          "value": 0.5,
          "id": 39
        },
        {
          "value": 0.5,
          "id": 40
        },
        {
          "value": 0.5,
          "id": 41
        },
        {
          "value": 0.5,
          "id": 42
        },
        {
          "value": 0.5,
          "id": 43
        },
        {
          "value": 0.5,
          "id": 44
        },
        {
          "value": 0.5,
          "id": 45
        },
        {
          "value": 0.5,
          "id": 46
        },
        {
          "value": 0.5,
          "id": 47
        },
        {
          "value": 0.5,
          "id": 48
        },
        {
          "value": 0.5,
          "id": 49
        },
        {
          "value": 0.5,
          "id": 50
        },
        {
          "value": 0.5,
          "id": 51
        },
        {
          "value": 0.5,
          "id": 52
        },
        {
          "value": 0.5,
          "id": 53
        },
        {
          "value": 0.5,
          "id": 54
        },
        {
          "value": 0.5,
          "id": 55
        },
        {
          "value": 0.5,
          "id": 56
        },
        {
          "value": 0.5,
          "id": 57
        },
        {
          "value": 0.5,
          "id": 58
        },
        {
          "value": 0.5,
          "id": 59
        },
        {
          "value": 0.5,
          "id": 60
        },
        {
          "value": 0.5,
          "id": 61
        },
        {
          "value": 0.5,
          "id": 62
        },
        {
          "value": 0.5,
          "id": 63
        },
        {
          "value": 0.5,
          "id": 64
        },
        {
          "value": 0.5,
          "id": 65
        },
        {
          "value": 0.5,
          "id": 66
        },
        {
          "value": 0.5,
          "id": 67
        },
        {
          "value": 0.5,
          "id": 68
        },
        {
          "value": 0.5,
          "id": 69
        },
        {
          "value": 0.5,
          "id": 70
        },
        {
          "value": 0.5,
          "id": 71
        },
        {
          "value": 0.0,
          "id": 72
        },
        {
          "value": 1.0,
          "id": 73
        },
        {
          "value": 0.0,
          "id": 74
        },
        {
          "value": 8.0,
          "id": 75
        },
        {
          "value": 0.0,
          "id": 76
        },
        {
          "value": 0.0,
          "id": 77
        },
        {
          "value": 0.0,
          "id": 78
        },
        {
          "value": 0.0,
          "id": 79
        },
        {
          "value": 1.0,
          "id": 80
        },
        {
          "value": 3.0,
          "id": 81
        },
        {
          "value": 5.0,
          "id": 82
        },
        {
          "value": 0.0,
          "id": 83
        },
        {
          "value": 1.0,
          "id": 84
        },
        {
          "value": 0.0,
          "id": 85
        },
        {
          "value": 2.0,
          "id": 86
        }
      ],
      "leftModuleId": 4757927610032130,
      "rightModuleId": 4527978366762434,
      "data": {
        "step": 5,
        "node": 18,
        "lastNode": 18,
        "lastGate": 18,
        "pathTraveled": [
          0,
          2,
          5,
          8,
          13,
          18,
          -1,
          -1
        ]
      },
      "pos": [
        -40,
        -1
      ]
    },
    {
      "id": 4527978366762434,
      "plugin": "AriaSalvatrice",
      "model": "Darius",
      "version": "2.0",
      "params": [
        {
          "value": 5.7326288223266602,
          "id": 0
        },
        {
          "value": 1.2162555456161499,
          "id": 1
        },
        {
          "value": 8.3106145858764648,
          "id": 2
        },
        {
          "value": 2.7549829483032227,
          "id": 3
        },
        {
          "value": 1.6300861835479736,
          "id": 4
        },
        {
          "value": 0.91675013303756714,
          "id": 5
        },
        {
          "value": 3.9831564426422119,
          "id": 6
        },
        {
          "value": 8.9421091079711914,
          "id": 7
        },
        {
          "value": 8.2793073654174805,
          "id": 8
        },
        {
          "value": 5.8733129501342773,
          "id": 9
        },
        {
          "value": 1.7882294654846191,
          "id": 10
        },
        {
          "value": 2.6813724040985107,
          "id": 11
        },
        {
          "value": 4.2679920196533203,
          "id": 12
        },
        {
          "value": 6.4848566055297852,
          "id": 13
        },
        {
          "value": 5.3372011184692383,
          "id": 14
        },
        {
          "value": 5.7527809143066406,
          "id": 15
        },
        {
          "value": 1.8975667953491211,
          "id": 16
        },
        {
          "value": 5.119206428527832,
          "id": 17
        },
        {
          "value": 7.4633817672729492,
          "id": 18
        },
        {
          "value": 7.3897285461425781,
          "id": 19
        },
        {
          "value": 0.11451608687639236,
          "id": 20
        },
        {
          "value": 6.0726122856140137,
          "id": 21
        },
        {
          "value": 1.6985502243041992,
          "id": 22
        },
        {
          "value": 7.9478974342346191,
          "id": 23
        },
        {
          "value": 9.0303964614868164,
          "id": 24
        },
        {
          "value": 6.8020820617675781,
          "id": 25
        },
        {
          "value": 4.086698055267334,
          "id": 26
        },
        {
          "value": 8.1851844787597656,
          "id": 27
        },
        {
          "value": 6.3494329452514648,
          "id": 28
        },
        {
          "value": 4.6584978103637695,
          "id": 29
        },
        {
          "value": 2.6089012622833252,
          "id": 30
        },
        {
          "value": 5.6259002685546875,
          "id": 31
        },
        {
          "value": 6.4349942207336426,
          "id": 32
        },
        {
          "value": 6.5766806602478027,
          "id": 33
        },
        {
          "value": 2.8860161304473877,
          "id": 34
        },
        {
          "value": 9.8916788101196289,
          "id": 35
        },
        {
          "value": 0.5,
          "id": 36
        },
        {
          "value": 0.5,
          "id": 37
        },
        {
          "value": 0.5,
          "id": 38
        },
        {
          "value": 0.5,
          "id": 39
        },
        {
          "value": 0.5,
          "id": 40
        },
        {
          "value": 0.5,
          "id": 41
        },
        {
          "value": 0.5,
          "id": 42
        },
        {
          "value": 0.5,
          "id": 43
        },
        {
          "value": 0.5,
          "id": 44
        },
        {
          "value": 0.5,
          "id": 45
        },
        {
          "value": 0.5,
          "id": 46
        },
        {
          "value": 0.5,
          "id": 47
        },
        {
          "value": 0.5,
          "id": 48
        },
        {
          "value": 0.5,
          "id": 49
        },
        {
          "value": 0.5,
          "id": 50
        },
        {
          "value": 0.5,
          "id": 51
        },
        {
          "value": 0.5,
          "id": 52
        },
        {
          "value": 0.5,
          "id": 53
        },
        {
          "value": 0.5,
          "id": 54
        },
        {
          "value": 0.5,
          "id": 55
        },
        {
          "value": 0.5,
          "id": 56
        },
        {
          "value": 0.5,
          "id": 57
        },
        {
          "value": 0.5,
          "id": 58
        },
        {
          "value": 0.5,
          "id": 59
        },
        {
          "value": 0.5,
          "id": 60
        },
        {
          "value": 0.5,
          "id": 61
        },
        {
          "value": 0.5,
          "id": 62
        },
        {
          "value": 0.5,
          "id": 63
        },
        {
          "value": 0.5,
          "id": 64
        },
        {
          "value": 0.5,
          "id": 65
        },
        {
          "value": 0.5,
          "id": 66
        },
        {
          "value": 0.5,
          "id": 67
        },
        {
          "value": 0.5,
          "id": 68
        },
        {
          "value": 0.5,
          "id": 69
        },
        {
          "value": 0.5,
          "id": 70
        },
        {
          "value": 0.5,
          "id": 71
        },
        {
          "value": 0.0,
          "id": 72
        },
        {
          "value": 1.0,
          "id": 73
        },
        {
          "value": 0.0,
          "id": 74
        },
        {
          "value": 8.0,
          "id": 75
        },
        {
          "value": 0.0,
          "id": 76
        },
        {
          "value": 0.0,
          "id": 77
        },
        {
          "value": 0.0,
          "id": 78
        },
        {
          "value": 0.0,
          "id": 79
        },
        {
          "value": 1.0,
          "id": 80
        },
        {
          "value": 3.0,
          "id": 81
        },
        {
          "value": 5.0,
          "id": 82
        },
        {
          "value": 0.0,
          "id": 83
        },
        {
          "value": 1.0,
          "id": 84
        },
        {
          "value": 0.0,
          "id": 85
        },
        {
          "value": 2.0,
          "id": 86
        }
      ],
      "leftModuleId": 4881975851057372,
      "rightModuleId": 1135374743729970,
      "data": {
        "step": 5,
        "node": 20,
        "lastNode": 20,
        "lastGate": 20,
        "pathTraveled": [
          0,
          2,
          5,
          9,
          14,
          20,
          -1,
          -1
        ]
      },
      "pos": [
        -8,
        -1
      ]
    },
    {
      "id": 1135374743729970,
      "plugin": "AriaSalvatrice",
      "model": "Darius",
      "version": "2.0",
      "params": [
        {
          "value": 5.7326288223266602,
          "id": 0
        },
        {
          "value": 1.2162555456161499,
          "id": 1
        },
        {
          "value": 8.3106145858764648,
          "id": 2
        },
        {
          "value": 2.7549829483032227,
          "id": 3
        },
        {
          "value": 1.6300861835479736,
          "id": 4
        },
        {
          "value": 0.91675013303756714,
          "id": 5
        },
        {
          "value": 3.9831564426422119,
          "id": 6
        },
        {
          "value": 8.9421091079711914,
          "id": 7
        },
        {
          "value": 8.2793073654174805,
          "id": 8
        },
        {
          "value": 5.8733129501342773,
          "id": 9
        },
        {
          "value": 1.7882294654846191,
          "id": 10
        },
        {
          "value": 2.6813724040985107,
          "id": 11
        },
        {
          "value": 4.2679920196533203,
          "id": 12
        },
        {
          "value": 6.4848566055297852,
          "id": 13
        },
        {
          "value": 5.3372011184692383,
          "id": 14
        },
        {
          "value": 5.7527809143066406,
          "id": 15
        },
        {
          "value": 1.8975667953491211,
          "id": 16
        },
        {
          "value": 5.119206428527832,
          "id": 17
        },
        {
          "value": 7.4633817672729492,
          "id": 18
        },
        {
          "value": 7.3897285461425781,
          "id": 19
        },
        {
          "value": 0.11451608687639236,
          "id": 20
        },
        {
          "value": 6.0726122856140137,
          "id": 21
        },
        {
          "value": 1.6985502243041992,
          "id": 22
        },
        {
          "value": 7.9478974342346191,
          "id": 23
        },
        {
          "value": 9.0303964614868164,
          "id": 24
        },
        {
          "value": 6.8020820617675781,
          "id": 25
        },
        {
          "value": 4.086698055267334,
          "id": 26
        },
        {
          "value": 8.1851844787597656,
          "id": 27
        },
        {
          "value": 6.3494329452514648,
          "id": 28
        },
        {
          "value": 4.6584978103637695,
          "id": 29
        },
        {
          "value": 2.6089012622833252,
          "id": 30
        },
        {
          "value": 5.6259002685546875,
          "id": 31
        },
        {
          "value": 6.4349942207336426,
          "id": 32
        },
        {
          "value": 6.5766806602478027,
          "id": 33
        },
        {
          "value": 2.8860161304473877,
          "id": 34
        },
        {
          "value": 9.8916788101196289,
          "id": 35
        },
        {
          "value": 0.5,
          "id": 36
        },
        {
          "value": 0.5,
          "id": 37
        },
        {
          "value": 0.5,
          "id": 38
        },
        {
          "value": 0.5,
          "id": 39
        },
        {
          "value": 0.5,
          "id": 40
        },
        {
          "value": 0.5,
          "id": 41
        },
        {
          "value": 0.5,
          "id": 42
        },
        {
          "value": 0.5,
          "id": 43
        },
        {
          "value": 0.5,
          "id": 44
        },
        {
          "value": 0.5,
          "id": 45
        },
        {
          "value": 0.5,
          "id": 46
        },
        {
          "value": 0.5,
          "id": 47
        },
        {
          "value": 0.5,
          "id": 48
        },
        {
          "value": 0.5,
          "id": 49
        },
        {
          "value": 0.5,
          "id": 50
        },
        {
          "value": 0.5,
          "id": 51
        },
        {
          "value": 0.5,
          "id": 52
        },
        {
          "value": 0.5,
          "id": 53
        },
        {
          "value": 0.5,
          "id": 54
        },
        {
          "value": 0.5,
          "id": 55
        },
        {
          "value": 0.5,
          "id": 56
        },
        {
          "value": 0.5,
          "id": 57
        },
        {
          "value": 0.5,
          "id": 58
        },
        {
          "value": 0.5,
          "id": 59
        },
        {
          "value": 0.5,
          "id": 60
        },
        {
          "value": 0.5,
          "id": 61
        },
        {
          "value": 0.5,
          "id": 62
        },
        {
          "value": 0.5,
          "id": 63
        },
        {
          "value": 0.5,
          "id": 64
        },
        {
          "value": 0.5,
          "id": 65
        },
        {
          "value": 0.5,
          "id": 66
        },
        {
          "value": 0.5,
          "id": 67
        },
        {
          "value": 0.5,
          "id": 68
        },
        {
          "value": 0.5,
          "id": 69
        },
        {
          "value": 0.5,
          "id": 70
        },
        {
          "value": 0.5,
          "id": 71
        },
        {
          "value": 0.0,
          "id": 72
        },
        {
          "value": 1.0,
          "id": 73
        },
        {
          "value": 0.0,
          "id": 74
        },
        {
          "value": 8.0,
          "id": 75
        },
        {
          "value": 0.0,
          "id": 76
        },
        {
          "value": 0.0,
          "id": 77
        },
        {
          "value": 0.0,
          "id": 78
        },
        {
          "value": 0.0,
          "id": 79
        },
        {
          "value": 1.0,
          "id": 80
        },
        {
          "value": 3.0,
          "id": 81
        },
        {
          "value": 5.0,
          "id": 82
        },
        {
          "value": 0.0,
          "id": 83
        },
        {
          "value": 1.0,
          "id": 84
        },
        {
          "value": 0.0,
          "id": 85
        },
        {
          "value": 2.0,
          "id": 86
        }
      ],
      "leftModuleId": 4527978366762434,
      "rightModuleId": 536482491730803,
      "data": {
        "step": 5,
        "node": 15,
        "lastNode": 15,
        "lastGate": 15,
        "pathTraveled": [
          0,
          1,
          3,
          6,
          10,
          15,
          -1,
          -1
        ]
      },
      "pos": [
        24,
        -1
      ]
    },
    {
      "id": 6485270196416882,
      "plugin": "21kHz",
      "model": "kHzPalmLoop",
      "version": "2.0",
      "params": [
        {
          "value": 7.0,
          "id": 0
        },
        {
          "value": 0.0,
          "id": 1
        },
        {
          "value": 0.0,
          "id": 2
        },
        {
          "value": 0.0,
          "id": 3
        },
        {
          "value": 0.0,
          "id": 4
        }
      ],
      "leftModuleId": 6529439116344665,
      "rightModuleId": 5588781388402853,
      "pos": [
        38,
        0
      ]
    },
    {
      "id": 1170574363078075,
      "plugin": "Bogaudio",
      "model": "Bogaudio-Mix1",
      "version": "2.0",
      "params": [
        {
          "value": 0.90909093618392944,
          "id": 0
        },
        {
          "value": 0.0,
          "id": 1
        }
      ],
      "leftModuleId": 5588781388402853,
      "rightModuleId": 1242960631247273,
      "data": {
        "linear_cv": false
      },
      "pos": [
        49,
        0
      ]
    },
    {
      "id": 1242960631247273,
      "plugin": "HetrickCV",
      "model": "Waveshaper",
      "version": "2.0",
      "params": [
        {
          "value": 1.8915570974349976,
          "id": 0
        },
        {
          "value": 1.0,
          "id": 1
        },
        {
          "value": 0.0,
          "id": 2
        }
      ],
      "leftModuleId": 1170574363078075,
      "rightModuleId": 5268894183644161,
      "pos": [
        52,
        0
      ]
    },
    {
      "id": 998069146105942,
      "plugin": "21kHz",
      "model": "kHzPalmLoop",
      "version": "2.0",
      "params": [
        {
          "value": 9.0,
          "id": 0
        },
        {
          "value": 0.0,
          "id": 1
        },
        {
          "value": 0.0,
          "id": 2
        },
        {
          "value": 0.0,
          "id": 3
        },
        {
          "value": 0.0,
          "id": 4
        }
      ],
      "leftModuleId": 438885941898769,
      "rightModuleId": 2278749660885397,
      "pos": [
        24,
        0
      ]
    },
    {
      "id": 6529439116344665,
      "plugin": "Bogaudio",
      "model": "Bogaudio-Mix1",
      "version": "2.0",
      "params": [
        {
          "value": 0.90909093618392944,
          "id": 0
        },
        {
          "value": 0.0,
          "id": 1
        }
      ],
      "leftModuleId": 2278749660885397,
      "rightModuleId": 6485270196416882,
      "data": {
        "linear_cv": false
      },
      "pos": [
        35,
        0
      ]
    },
    {
      "id": 6814437816954201,
      "plugin": "21kHz",
      "model": "kHzPalmLoop",
      "version": "2.0",
      "params": [
        {
          "value": 10.0,
          "id": 0
        },
        {
          "value": 0.0,
          "id": 1
        },
        {
          "value": 0.0,
          "id": 2
        },
        {
          "value": 0.0,
          "id": 3
        },
        {
          "value": 0.0,
          "id": 4
        }
      ],
      "leftModuleId": 3745062635142253,
      "rightModuleId": 1305145125414192,
      "pos": [
        7,
        0
      ]
    },
    {
      "id": 438885941898769,
      "plugin": "Bogaudio",
      "model": "Bogaudio-Mix1",
      "version": "2.0",
      "params": [
        {
          "value": 1.0,
          "id": 0
        },
        {
          "value": 0.0,
          "id": 1
        }
      ],
      "leftModuleId": 7382001000905062,
      "rightModuleId": 998069146105942,
      "data": {
        "linear_cv": false
      },
      "pos": [
        21,
        0
      ]
    },
    {
      "id": 1305145125414192,
      "plugin": "Bogaudio",
      "model": "Bogaudio-Mix1",
      "version": "2.0",
      "params": [
        {
          "value": 0.57800096273422241,
          "id": 0
        },
        {
          "value": 0.0,
          "id": 1
        }
      ],
      "leftModuleId": 6814437816954201,
      "rightModuleId": 7382001000905062,
      "data": {
        "linear_cv": false
      },
      "pos": [
        15,
        0
      ]
    },
    {
      "id": 5268894183644161,
      "plugin": "MSM",
      "model": "DualDelay",
      "version": "2.0",
      "params": [
        {
          "value": 1.0,
          "id": 0
        },
        {
          "value": 1.0,
          "id": 1
        },
        {
          "value": 0.67479997873306274,
          "id": 2
        },
        {
          "value": 0.67479997873306274,
          "id": 3
        },
        {
          "value": 0.17179480195045471,
          "id": 4
        },
        {
          "value": 0.42564103007316589,
          "id": 5
        },
        {
          "value": 1.0,
          "id": 6
        },
        {
          "value": 0.0,
          "id": 7
        },
        {
          "value": 1.0,
          "id": 8
        },
        {
          "value": 0.0,
          "id": 9
        },
        {
          "value": 0.78974288702011108,
          "id": 10
        },
        {
          "value": 1.0,
          "id": 11
        },
        {
          "value": 0.44102579355239868,
          "id": 12
        },
        {
          "value": 0.33333185315132141,
          "id": 13
        },
        {
          "value": 0.0,
          "id": 14
        },
        {
          "value": 0.0,
          "id": 15
        },
        {
          "value": 0.0,
          "id": 16
        },
        {
          "value": 0.0,
          "id": 17
        }
      ],
      "leftModuleId": 1242960631247273,
      "rightModuleId": 4215581185125803,
      "data": {
        "Theme": 1,
        "DISPLAYA": 1,
        "DISPLAYB": 1
      },
      "pos": [
        58,
        0
      ]
    },
    {
      "id": 4215581185125803,
      "plugin": "mscHack",
      "model": "Mix_4_0_4",
      "version": "2.0",
      "params": [
        {
          "value": 0.5,
          "id": 0
        },
        {
          "value": 1.0,
          "id": 1
        },
        {
          "value": 0.52800261974334717,
          "id": 2
        },
        {
          "value": 0.87599974870681763,
          "id": 3
        },
        {
          "value": 1.0,
          "id": 4
        },
        {
          "value": 0.85999959707260132,
          "id": 5
        },
        {
          "value": 1.0,
          "id": 6
        },
        {
          "value": 0.0,
          "id": 7
        },
        {
          "value": 0.0,
          "id": 8
        },
        {
          "value": -0.26987946033477783,
          "id": 9
        },
        {
          "value": -0.09156624972820282,
          "id": 10
        },
        {
          "value": 0.3975902795791626,
          "id": 11
        },
        {
          "value": 0.0,
          "id": 12
        },
        {
          "value": 0.0,
          "id": 13
        },
        {
          "value": 0.0,
          "id": 14
        },
        {
          "value": 0.0,
          "id": 15
        },
        {
          "value": 0.0,
          "id": 16
        },
        {
          "value": 0.5,
          "id": 17
        },
        {
          "value": 0.5,
          "id": 18
        },
        {
          "value": 0.5,
          "id": 19
        },
        {
          "value": 0.5,
          "id": 20
        },
        {
          "value": 0.5,
          "id": 21
        },
        {
          "value": 0.5,
          "id": 22
        },
        {
          "value": 0.5,
          "id": 23
        },
        {
          "value": 0.5,
          "id": 24
        },
        {
          "value": 0.5,
          "id": 25
        },
        {
          "value": 0.5,
          "id": 26
        },
        {
          "value": 0.5,
          "id": 27
        },
        {
          "value": 0.5,
          "id": 28
        },
        {
          "value": 0.5,
          "id": 29
        },
        {
          "value": 0.5,
          "id": 30
        },
        {
          "value": 0.5,
          "id": 31
        },
        {
          "value": 0.5,
          "id": 32
        },
        {
          "value": 0.5,
          "id": 33
        },
        {
          "value": 0.5,
          "id": 34
        },
        {
          "value": 0.5,
          "id": 35
        },
        {
          "value": 0.5,
          "id": 36
        },
        {
          "value": 0.5,
          "id": 37
        },
        {
          "value": 0.5,
          "id": 38
        },
        {
          "value": 0.5,
          "id": 39
        },
        {
          "value": 0.5,
          "id": 40
        },
        {
          "value": 0.62168782949447632,
          "id": 41
        },
        {
          "value": 0.0,
          "id": 42
        },
        {
          "value": 0.0,
          "id": 43
        },
        {
          "value": 0.0,
          "id": 44
        },
        {
          "value": 0.36024099588394165,
          "id": 45
        },
        {
          "value": 0.0,
          "id": 46
        },
        {
          "value": 0.0,
          "id": 47
        },
        {
          "value": 0.0,
          "id": 48
        },
        {
          "value": 0.26265072822570801,
          "id": 49
        },
        {
          "value": 0.73252993822097778,
          "id": 50
        },
        {
          "value": 0.0,
          "id": 51
        },
        {
          "value": 0.0,
          "id": 52
        },
        {
          "value": 0.0,
          "id": 53
        },
        {
          "value": 0.0,
          "id": 54
        },
        {
          "value": 0.0,
          "id": 55
        },
        {
          "value": 0.0,
          "id": 56
        },
        {
          "value": 1.0,
          "id": 57
        },
        {
          "value": 1.0,
          "id": 58
        },
        {
          "value": 0.0,
          "id": 59
        },
        {
          "value": 0.0,
          "id": 60
        }
      ],
      "leftModuleId": 5268894183644161,
      "rightModuleId": 3607506233121471,
      "data": {
        "m_bMuteStates": [
          false,
          false,
          false,
          false,
          false,
          false,
          false,
          false
        ],
        "m_bSoloStates": [
          false,
          false,
          false,
          false,
          false,
          false,
          false,
          false
        ],
        "m_bGroupPreMute": [
          true
        ],
        "m_bGainLevelx2": [
          false
        ],
        "m_bPreFader": [
          false,
          false,
          false,
          false
        ],
        "m_bAuxIgnoreSolo": [
          false
        ]
      },
      "pos": [
        83,
        0
      ]
    },
    {
      "id": 7443709671562104,
      "plugin": "ParableInstruments",
      "model": "Neil",
      "version": "2.0",
      "params": [
        {
          "value": 0.5,
          "id": 0
        },
        {
          "value": 0.79277026653289795,
          "id": 1
        },
        {
          "value": 0.0,
          "id": 2
        },
        {
          "value": 0.71927660703659058,
          "id": 3
        },
        {
          "value": 0.70240950584411621,
          "id": 4
        },
        {
          "value": 0.73011982440948486,
          "id": 5
        },
        {
          "value": 0.67951756715774536,
          "id": 6
        },
        {
          "value": 0.76023942232131958,
          "id": 7
        },
        {
          "value": 0.69036132097244263,
          "id": 8
        },
        {
          "value": 0.76987874507904053,
          "id": 9
        },
        {
          "value": 0.0,
          "id": 10
        },
        {
          "value": 0.0,
          "id": 11
        }
      ],
      "leftModuleId": 536482491730803,
      "data": {
        "playbackmode": 0,
        "lofi": false,
        "mono": false,
        "freeze": false,
        "buffersize": 1,
        "reverse": 0
      },
      "pos": [
        68,
        -1
      ]
    },
    {
      "id": 536482491730803,
      "plugin": "Valley",
      "model": "Plateau",
      "version": "2.0",
      "params": [
        {
          "value": 1.0,
          "id": 0
        },
        {
          "value": 0.5,
          "id": 1
        },
        {
          "value": 0.0,
          "id": 2
        },
        {
          "value": 10.0,
          "id": 3
        },
        {
          "value": 10.0,
          "id": 4
        },
        {
          "value": 0.5,
          "id": 5
        },
        {
          "value": 10.0,
          "id": 6
        },
        {
          "value": 0.5499500036239624,
          "id": 7
        },
        {
          "value": 10.0,
          "id": 8
        },
        {
          "value": 10.0,
          "id": 9
        },
        {
          "value": 0.0,
          "id": 10
        },
        {
          "value": 0.5,
          "id": 11
        },
        {
          "value": 0.5,
          "id": 12
        },
        {
          "value": 0.0,
          "id": 13
        },
        {
          "value": 0.0,
          "id": 14
        },
        {
          "value": 0.0,
          "id": 15
        },
        {
          "value": 0.0,
          "id": 16
        },
        {
          "value": 0.0,
          "id": 17
        },
        {
          "value": 0.0,
          "id": 18
        },
        {
          "value": 0.0,
          "id": 19
        },
        {
          "value": 0.0,
          "id": 20
        },
        {
          "value": 0.0,
          "id": 21
        },
        {
          "value": 0.0,
          "id": 22
        },
        {
          "value": 0.0,
          "id": 23
        },
        {
          "value": 0.0,
          "id": 24
        },
        {
          "value": 0.0,
          "id": 25
        },
        {
          "value": 0.0,
          "id": 26
        },
        {
          "value": 0.0,
          "id": 27
        },
        {
          "value": 0.0,
          "id": 28
        },
        {
          "value": 0.0,
          "id": 29
        },
        {
          "value": 1.0,
          "id": 30
        }
      ],
      "leftModuleId": 1135374743729970,
      "rightModuleId": 7443709671562104,
      "data": {
        "frozen": false,
        "freezeToggle": false,
        "panelStyle": 0,
        "tuned": 0,
        "diffuseInput": 1,
        "preDelayCVSens": 0,
        "inputSensitivity": 0,
        "outputSaturation": 0
      },
      "pos": [
        56,
        -1
      ]
    },
    {
      "id": 3607506233121471,
      "plugin": "Cardinal",
      "model": "HostAudio2",
      "version": "2.0",
      "params": [
        {
          "value": 1.0,
          "id": 0
        }
      ],
      "leftModuleId": 4215581185125803,
      "data": {
        "dcFilter": true
      },
      "pos": [
        103,
        0
      ]
    }
  ],
  "cables": [
    {
      "id": 2235176226196319,
      "outputModuleId": 6814437816954201,
      "outputId": 4,
      "inputModuleId": 438885941898769,
      "inputId": 2,
      "color": "#67ff52"
    },
    {
      "id": 6022726504005218,
      "outputModuleId": 998069146105942,
      "outputId": 4,
      "inputModuleId": 6529439116344665,
      "inputId": 2,
      "color": "#52ffbe"
    },
    {
      "id": 3282586688299790,
      "outputModuleId": 7382001000905062,
      "outputId": 0,
      "inputModuleId": 438885941898769,
      "inputId": 1,
      "color": "#527dff"
    },
    {
      "id": 6658465679677949,
      "outputModuleId": 2278749660885397,
      "outputId": 0,
      "inputModuleId": 6529439116344665,
      "inputId": 1,
      "color": "#6752ff"
    },
    {
      "id": 2742306951867261,
      "outputModuleId": 5588781388402853,
      "outputId": 0,
      "inputModuleId": 1170574363078075,
      "inputId": 1,
      "color": "#a852ff"
    },
    {
      "id": 260784296137933,
      "outputModuleId": 3745062635142253,
      "outputId": 0,
      "inputModuleId": 4215581185125803,
      "inputId": 0,
      "color": "#ff52d4"
    },
    {
      "id": 8073968937380858,
      "outputModuleId": 6529439116344665,
      "outputId": 0,
      "inputModuleId": 4215581185125803,
      "inputId": 2,
      "color": "#ff5252"
    },
    {
      "id": 3164897786370058,
      "outputModuleId": 8554745767661414,
      "outputId": 2,
      "inputModuleId": 3745062635142253,
      "inputId": 2,
      "color": "#ffd452"
    },
    {
      "id": 8903424001873344,
      "outputModuleId": 413123163252880,
      "outputId": 0,
      "inputModuleId": 3745062635142253,
      "inputId": 1,
      "color": "#e8ff52"
    },
    {
      "id": 8456086847803564,
      "outputModuleId": 2159047972516498,
      "outputId": 1,
      "inputModuleId": 3830846223236507,
      "inputId": 0,
      "color": "#a8ff52"
    },
    {
      "id": 4912535622605668,
      "outputModuleId": 2159047972516498,
      "outputId": 3,
      "inputModuleId": 3830846223236507,
      "inputId": 1,
      "color": "#67ff52"
    },
    {
      "id": 508391464997356,
      "outputModuleId": 3830846223236507,
      "outputId": 0,
      "inputModuleId": 413123163252880,
      "inputId": 0,
      "color": "#52ff7d"
    },
    {
      "id": 1773904448289839,
      "outputModuleId": 3830846223236507,
      "outputId": 3,
      "inputModuleId": 7382001000905062,
      "inputId": 0,
      "color": "#52ffbe"
    },
    {
      "id": 5936597655473796,
      "outputModuleId": 3830846223236507,
      "outputId": 1,
      "inputModuleId": 2278749660885397,
      "inputId": 0,
      "color": "#52ffff"
    },
    {
      "id": 2986652811528886,
      "outputModuleId": 3830846223236507,
      "outputId": 4,
      "inputModuleId": 5588781388402853,
      "inputId": 0,
      "color": "#52beff"
    },
    {
      "id": 3444562726806638,
      "outputModuleId": 3830846223236507,
      "outputId": 5,
      "inputModuleId": 5622494419825952,
      "inputId": 2,
      "color": "#ff5252"
    },
    {
      "id": 4728276395722392,
      "outputModuleId": 3830846223236507,
      "outputId": 2,
      "inputModuleId": 5622494419825952,
      "inputId": 4,
      "color": "#ff9352"
    },
    {
      "id": 5814666200616619,
      "outputModuleId": 5622494419825952,
      "outputId": 36,
      "inputModuleId": 8554745767661414,
      "inputId": 1,
      "color": "#e8ff52"
    },
    {
      "id": 5198037635643296,
      "outputModuleId": 4881975851057372,
      "outputId": 36,
      "inputModuleId": 6814437816954201,
      "inputId": 1,
      "color": "#a8ff52"
    },
    {
      "id": 3006457239741485,
      "outputModuleId": 5622494419825952,
      "outputId": 37,
      "inputModuleId": 4881975851057372,
      "inputId": 2,
      "color": "#52ff7d"
    },
    {
      "id": 2900816546241214,
      "outputModuleId": 4881975851057372,
      "outputId": 37,
      "inputModuleId": 4527978366762434,
      "inputId": 5,
      "color": "#52ffbe"
    },
    {
      "id": 1814122622676943,
      "outputModuleId": 4527978366762434,
      "outputId": 36,
      "inputModuleId": 998069146105942,
      "inputId": 1,
      "color": "#52beff"
    },
    {
      "id": 7381289574248263,
      "outputModuleId": 1135374743729970,
      "outputId": 36,
      "inputModuleId": 6485270196416882,
      "inputId": 1,
      "color": "#6752ff"
    },
    {
      "id": 598155439618034,
      "outputModuleId": 4527978366762434,
      "outputId": 37,
      "inputModuleId": 1135374743729970,
      "inputId": 4,
      "color": "#527dff"
    },
    {
      "id": 8997323665207629,
      "outputModuleId": 536482491730803,
      "outputId": 0,
      "inputModuleId": 4215581185125803,
      "inputId": 4,
      "color": "#a852ff"
    },
    {
      "id": 3377121478525888,
      "outputModuleId": 536482491730803,
      "outputId": 1,
      "inputModuleId": 4215581185125803,
      "inputId": 12,
      "color": "#e952ff"
    },
    {
      "id": 720617013682500,
      "outputModuleId": 4215581185125803,
      "outputId": 2,
      "inputModuleId": 536482491730803,
      "inputId": 0,
      "color": "#ff52d4"
    },
    {
      "id": 3316867042879380,
      "outputModuleId": 4215581185125803,
      "outputId": 6,
      "inputModuleId": 536482491730803,
      "inputId": 1,
      "color": "#ff5293"
    },
    {
      "id": 2126524991939052,
      "outputModuleId": 6485270196416882,
      "outputId": 2,
      "inputModuleId": 1170574363078075,
      "inputId": 2,
      "color": "#ff9352"
    },
    {
      "id": 4077562280107778,
      "outputModuleId": 1170574363078075,
      "outputId": 0,
      "inputModuleId": 1242960631247273,
      "inputId": 0,
      "color": "#ff9352"
    },
    {
      "id": 967178590970467,
      "outputModuleId": 1242960631247273,
      "outputId": 0,
      "inputModuleId": 4215581185125803,
      "inputId": 3,
      "color": "#ffd452"
    },
    {
      "id": 419411845513826,
      "outputModuleId": 4757927610032130,
      "outputId": 0,
      "inputModuleId": 4881975851057372,
      "inputId": 7,
      "color": "#a8ff52"
    },
    {
      "id": 2086354676419812,
      "outputModuleId": 4757927610032130,
      "outputId": 1,
      "inputModuleId": 5622494419825952,
      "inputId": 7,
      "color": "#67ff52"
    },
    {
      "id": 6431589749239545,
      "outputModuleId": 4757927610032130,
      "outputId": 2,
      "inputModuleId": 4527978366762434,
      "inputId": 7,
      "color": "#52ff7d"
    },
    {
      "id": 6968529858264893,
      "outputModuleId": 4757927610032130,
      "outputId": 3,
      "inputModuleId": 1135374743729970,
      "inputId": 7,
      "color": "#52ffff"
    },
    {
      "id": 358980672133044,
      "outputModuleId": 6766853921521776,
      "outputId": 4,
      "inputModuleId": 4757927610032130,
      "inputId": 0,
      "color": "#52beff"
    },
    {
      "id": 4384870734125312,
      "outputModuleId": 6766853921521776,
      "outputId": 4,
      "inputModuleId": 4757927610032130,
      "inputId": 1,
      "color": "#527dff"
    },
    {
      "id": 7927603523615369,
      "outputModuleId": 2159047972516498,
      "outputId": 4,
      "inputModuleId": 4187213689217722,
      "inputId": 0,
      "color": "#6752ff"
    },
    {
      "id": 6264497310562033,
      "outputModuleId": 4187213689217722,
      "outputId": 0,
      "inputModuleId": 5622494419825952,
      "inputId": 1,
      "color": "#a852ff"
    },
    {
      "id": 5273879209094797,
      "outputModuleId": 2159047972516498,
      "outputId": 5,
      "inputModuleId": 4187213689217722,
      "inputId": 1,
      "color": "#e952ff"
    },
    {
      "id": 2924798029829532,
      "outputModuleId": 4187213689217722,
      "outputId": 3,
      "inputModuleId": 5622494419825952,
      "inputId": 0,
      "color": "#ff52d4"
    },
    {
      "id": 2033863350666172,
      "outputModuleId": 4187213689217722,
      "outputId": 4,
      "inputModuleId": 4881975851057372,
      "inputId": 0,
      "color": "#ff5293"
    },
    {
      "id": 6716861340476980,
      "outputModuleId": 4187213689217722,
      "outputId": 5,
      "inputModuleId": 4527978366762434,
      "inputId": 0,
      "color": "#ff5252"
    },
    {
      "id": 778360371637121,
      "outputModuleId": 4187213689217722,
      "outputId": 1,
      "inputModuleId": 4881975851057372,
      "inputId": 1,
      "color": "#ff9352"
    },
    {
      "id": 3292377129970689,
      "outputModuleId": 4187213689217722,
      "outputId": 2,
      "inputModuleId": 4527978366762434,
      "inputId": 1,
      "color": "#ffd452"
    },
    {
      "id": 4028939327390985,
      "outputModuleId": 4215581185125803,
      "outputId": 0,
      "inputModuleId": 3607506233121471,
      "inputId": 0,
      "color": "#52ffff"
    },
    {
      "id": 8533240176029344,
      "outputModuleId": 4215581185125803,
      "outputId": 1,
      "inputModuleId": 3607506233121471,
      "inputId": 1,
      "color": "#52beff"
    },
    {
      "id": 3832893590411641,
      "outputModuleId": 4215581185125803,
      "outputId": 3,
      "inputModuleId": 7443709671562104,
      "inputId": 9,
      "color": "#527dff"
    },
    {
      "id": 4156137178982159,
      "outputModuleId": 4215581185125803,
      "outputId": 7,
      "inputModuleId": 7443709671562104,
      "inputId": 10,
      "color": "#6752ff"
    },
    {
      "id": 3760373211330506,
      "outputModuleId": 7443709671562104,
      "outputId": 0,
      "inputModuleId": 4215581185125803,
      "inputId": 5,
      "color": "#a852ff"
    },
    {
      "id": 4144293620724594,
      "outputModuleId": 7443709671562104,
      "outputId": 1,
      "inputModuleId": 4215581185125803,
      "inputId": 13,
      "color": "#e952ff"
    },
    {
      "id": 363654023698591,
      "outputModuleId": 438885941898769,
      "outputId": 0,
      "inputModuleId": 5268894183644161,
      "inputId": 11,
      "color": "#ff5293"
    },
    {
      "id": 4533367996164427,
      "outputModuleId": 5268894183644161,
      "outputId": 0,
      "inputModuleId": 4215581185125803,
      "inputId": 1,
      "color": "#ff5293"
    },
    {
      "id": 6442029154232978,
      "outputModuleId": 5268894183644161,
      "outputId": 1,
      "inputModuleId": 4215581185125803,
      "inputId": 9,
      "color": "#ff5252"
    },
    {
      "id": 2094602820170491,
      "outputModuleId": 6814437816954201,
      "outputId": 0,
      "inputModuleId": 1305145125414192,
      "inputId": 2,
      "color": "#ffd452"
    },
    {
      "id": 1047657886668571,
      "outputModuleId": 1305145125414192,
      "outputId": 0,
      "inputModuleId": 5268894183644161,
      "inputId": 12,
      "color": "#ff9352"
    },
    {
      "id": 5230685126204162,
      "outputModuleId": 3830846223236507,
      "outputId": 2,
      "inputModuleId": 5268894183644161,
      "inputId": 0,
      "color": "#a8ff52"
    },
    {
      "id": 5327685443477545,
      "outputModuleId": 4187213689217722,
      "outputId": 0,
      "inputModuleId": 1135374743729970,
      "inputId": 1,
      "color": "#67ff52"
    },
    {
      "id": 8669074006312217,
      "outputModuleId": 4187213689217722,
      "outputId": 3,
      "inputModuleId": 1135374743729970,
      "inputId": 0,
      "color": "#52ff7d"
    }
  ]
}
