{
  "version": "2.1",
  "path": "/Shared/Personal/FOSS/GIT/DISTRHO/DISTRHO_Cardinal/src/template-fx.vcv",
  "unsaved": true,
  "zoom": 1.0,
  "modules": [
    {
      "id": 8712245256622475,
      "plugin": "Cardinal",
      "model": "TextEditor",
      "version": "2.0",
      "params": [],
      "leftModuleId": 4,
      "data": {
        "filepath": "",
        "lang": "None",
        "etext": "Welcome to Cardinal!\n\nThis is the Synth variant\nIt has 2 audio outputs, plus MIDI\n\nA basic VCO + ADSR + VCA is\nthe default patch\n\n",
        "width": 19
      },
      "pos": [
        43,
        0
      ]
    },
    {
      "id": 674529428127255,
      "plugin": "Bogaudio",
      "model": "Bogaudio-ADSR",
      "version": "2.0",
      "params": [
        {
          "value": 0.069131895899772644,
          "id": 0
        },
        {
          "value": 0.31622999906539917,
          "id": 1
        },
        {
          "value": 1.0,
          "id": 2
        },
        {
          "value": 0.31622999906539917,
          "id": 3
        },
        {
          "value": 0.0,
          "id": 4
        }
      ],
      "leftModuleId": 331777374771466,
      "rightModuleId": 3281475959768191,
      "data": {
        "invert": 1.0
      },
      "pos": [
        12,
        0
      ]
    },
    {
      "id": 3281475959768191,
      "plugin": "Bogaudio",
      "model": "Bogaudio-VCAmp",
      "version": "2.0",
      "params": [
        {
          "value": 0.83333331346511841,
          "id": 0
        }
      ],
      "leftModuleId": 674529428127255,
      "rightModuleId": 1,
      "data": {},
      "pos": [
        15,
        0
      ]
    },
    {
      "id": 331777374771466,
      "plugin": "Bogaudio",
      "model": "Bogaudio-LVCO",
      "version": "2.0",
      "params": [
        {
          "value": 0.0,
          "id": 0
        },
        {
          "value": 0.0,
          "id": 1
        },
        {
          "value": 0.0,
          "id": 2
        },
        {
          "value": 0.02500000037252903,
          "id": 3
        }
      ],
      "leftModuleId": 2,
      "rightModuleId": 674529428127255,
      "data": {
        "poly_input": 0,
        "dc_correction": true,
        "fm_mode": false,
        "linear_mode": false,
        "reset_on_wave_change": false
      },
      "pos": [
        9,
        0
      ]
    },
    {
      "id": 1,
      "plugin": "Cardinal",
      "model": "HostAudio2",
      "version": "2.0",
      "params": [
        {
          "value": 1.0,
          "id": 0
        }
      ],
      "leftModuleId": 3281475959768191,
      "rightModuleId": 3,
      "data": {
        "dcFilter": true
      },
      "pos": [
        18,
        0
      ]
    },
    {
      "id": 2,
      "plugin": "Cardinal",
      "model": "HostMIDI",
      "version": "2.0",
      "params": [],
      "rightModuleId": 331777374771466,
      "data": {
        "pwRange": 0.0,
        "smooth": false,
        "channels": 1,
        "polyMode": 0,
        "lastPitch": 8192,
        "lastMod": 0,
        "inputChannel": 0,
        "outputChannel": 0
      },
      "pos": [
        0,
        0
      ]
    },
    {
      "id": 3,
      "plugin": "Cardinal",
      "model": "HostTime",
      "version": "2.0",
      "params": [],
      "leftModuleId": 1,
      "rightModuleId": 4,
      "pos": [
        26,
        0
      ]
    },
    {
      "id": 4,
      "plugin": "Cardinal",
      "model": "HostParameters",
      "version": "2.0",
      "params": [],
      "leftModuleId": 3,
      "rightModuleId": 8712245256622475,
      "pos": [
        34,
        0
      ]
    }
  ],
  "cables": [
    {
      "id": 4819926075235968,
      "outputModuleId": 2,
      "outputId": 0,
      "inputModuleId": 331777374771466,
      "inputId": 0,
      "color": "#ff5252"
    },
    {
      "id": 2420818759782995,
      "outputModuleId": 331777374771466,
      "outputId": 0,
      "inputModuleId": 3281475959768191,
      "inputId": 1,
      "color": "#67ff52"
    },
    {
      "id": 5329555665685235,
      "outputModuleId": 674529428127255,
      "outputId": 0,
      "inputModuleId": 3281475959768191,
      "inputId": 0,
      "color": "#52ffff"
    },
    {
      "id": 4079786865533706,
      "outputModuleId": 2,
      "outputId": 1,
      "inputModuleId": 674529428127255,
      "inputId": 0,
      "color": "#ff9352"
    },
    {
      "id": 3101737648049587,
      "outputModuleId": 3281475959768191,
      "outputId": 0,
      "inputModuleId": 1,
      "inputId": 0,
      "color": "#52beff"
    },
    {
      "id": 537659689081948,
      "outputModuleId": 2,
      "outputId": 2,
      "inputModuleId": 331777374771466,
      "inputId": 1,
      "color": "#ffd452"
    }
  ]
}
